<svg width="51" height="51" viewBox="0 0 51 51" fill="none" xmlns="http://www.w3.org/2000/svg">
<path fill-rule="evenodd" clip-rule="evenodd" d="M7.41605 7.41637C17.3045 -2.47205 33.3366 -2.47202 43.2251 7.41635C53.1135 17.3048 53.1135 33.337 43.2252 43.2256C37.0157 49.4348 28.3831 51.7425 20.3803 50.1575C19.0085 49.8858 18.1167 48.5535 18.3884 47.1817C18.6601 45.81 19.9923 44.9181 21.3641 45.1898C27.78 46.4605 34.6797 44.609 39.6443 39.6446C47.5549 31.7337 47.5549 18.908 39.6443 10.9973C39.6443 10.9973 39.6443 10.9973 39.6443 10.9973M39.6443 10.9973C31.7333 3.08656 18.9076 3.08657 10.997 10.9973C6.03248 15.9618 4.18096 22.8615 5.4516 29.2774C5.72328 30.6492 4.83147 31.9815 3.45968 32.2531C2.0879 32.5248 0.755605 31.633 0.483927 30.2612C-1.10101 22.2584 1.20661 13.6258 7.41605 7.41637M13.529 20.2568C13.529 18.8583 14.6627 17.7247 16.0611 17.7247H30.3847C31.7831 17.7247 32.9168 18.8583 32.9168 20.2568V34.5805C32.9168 35.9789 31.7831 37.1126 30.3847 37.1126C28.9863 37.1126 27.8526 35.9789 27.8526 34.5805V26.3698L10.997 43.2256C10.0081 44.2144 8.4049 44.2144 7.41606 43.2256C6.42722 42.2367 6.42721 40.6335 7.41605 39.6447L24.2718 22.7888H16.0611C14.6627 22.7888 13.529 21.6552 13.529 20.2568Z" fill="white"/>
</svg>
