<svg width="145" height="117" viewBox="0 0 145 117" fill="none" xmlns="http://www.w3.org/2000/svg">
<path d="M112.14 0.297062C104.845 -0.11076 99.4652 1.60418 96.1524 5.38437C92.8397 9.16456 92.646 13.8859 92.7978 16.2387C90.1811 18.6752 88.3181 21.7234 87.0778 24.8918C85.8322 21.7234 83.9691 18.6699 81.3576 16.2387C81.5094 13.8806 81.3158 9.16456 78.003 5.38437C74.6903 1.60418 69.3156 -0.14213 62.0151 0.297062C41.5473 1.43164 30.5571 15.1512 30.1018 15.7315C29.4058 16.6204 29.4006 17.8647 30.0861 18.7588C30.7717 19.6581 31.9806 19.977 33.0116 19.5326C33.0901 19.5013 40.532 16.4583 49.7689 21.258L50.7842 21.8227C56.8287 25.2317 62.1668 26.9362 66.7827 26.9362C71.7439 26.9362 75.8102 24.8448 79.0549 20.9025C82.8753 25.2108 83.9534 31.3228 84.2517 34.5802C72.3091 35.5736 63.4123 40.8596 61.1149 42.3602C59.639 42.334 58.0586 42.402 56.2792 42.7052C42.2537 45.1051 24.4393 64.8269 19.724 70.3064L15.6367 66.7092C14.679 65.8622 13.2399 65.8935 12.3083 66.7615L1.37576 76.9988C0.862886 77.4798 0.580283 78.1543 0.59075 78.8549C0.60645 79.5555 0.915228 80.2196 1.44903 80.6744L42.4369 115.982C42.8922 116.369 43.4627 116.578 44.054 116.578C44.1953 116.578 44.3367 116.568 44.4832 116.542C45.2159 116.411 45.8491 115.961 46.2102 115.318L53.3852 102.535C53.9556 101.52 53.7358 100.239 52.8619 99.4708L48.6332 95.7534L62.0831 78.0445H94.6714C99.303 78.0445 103.751 76.3453 107.19 73.2605C124.564 57.6953 133.529 46.8357 133.833 40.9798C133.932 39.061 133.189 37.8166 132.545 37.1108C131.2 35.6311 129.353 34.8416 127.202 34.8259H127.15C122.906 34.8259 117.473 38.0048 112.507 41.785C104.636 36.7866 96.9113 34.7423 89.9194 34.4495C90.2335 31.166 91.3272 25.1585 95.1005 20.9077C98.3452 24.85 102.412 26.9466 107.373 26.9466C111.983 26.9466 117.327 25.2421 123.371 21.8332L124.387 21.2685C133.519 16.521 140.84 19.4176 141.144 19.5431C142.185 19.9875 143.389 19.6686 144.069 18.7693C144.755 17.8752 144.75 16.6308 144.054 15.742C143.598 15.1616 132.608 1.4421 112.14 0.307521V0.297062ZM53.2072 17.5197L52.0454 16.8766C47.3877 14.4506 43.065 13.6767 39.5743 13.614C44.321 10.0273 51.9984 5.79742 62.282 5.22752C67.9288 4.91381 71.9847 6.04838 74.2507 8.61034C75.3968 9.907 75.9411 11.4389 76.208 12.8297C73.9053 11.8259 71.2467 11.2089 68.1538 11.1462C66.9187 11.2559 65.6574 12.2023 65.6313 13.5669C65.6051 14.9316 66.6884 16.0609 68.0543 16.0871C70.9432 16.1446 73.2982 16.8347 75.2555 17.8961C69.2057 25.0905 60.3874 21.5717 53.2125 17.5197H53.2072ZM43.3737 110.262L6.76093 78.7242L14.0458 71.9011L48.0943 101.86L43.3789 110.262H43.3737ZM127.171 39.7668C128.16 39.7721 128.599 40.1224 128.866 40.4047C129.452 41.7693 126.103 49.6696 103.882 69.5796C101.349 71.8488 98.0783 73.0984 94.6714 73.0984H60.8584C60.0839 73.0984 59.3565 73.4591 58.8855 74.0761L44.9123 92.4751L23.4345 73.5742C27.7991 68.5235 44.8024 49.68 57.1114 47.573C65.9349 46.0619 69.3261 50.3179 69.4412 50.4695C69.907 51.1074 70.6449 51.4891 71.4404 51.4943C80.0545 51.5205 94.9854 52.9112 98.3504 56.5607C98.811 57.0574 98.7901 57.3711 98.7744 57.5227C98.5232 60.7278 84.8012 62.6467 69.975 61.533C68.6196 61.418 67.4264 62.448 67.3217 63.8126C67.2223 65.172 68.2375 66.3589 69.6035 66.4634C77.4012 67.0543 102.919 68.1679 103.709 57.9044C103.746 57.4339 103.594 56.9947 103.521 56.545C110.094 49.6853 121.54 39.7721 127.139 39.7721H127.171V39.7668ZM100.836 52.1897C94.3103 47.2854 77.3803 46.6475 72.5289 46.5691C71.7334 45.8005 70.3623 44.7496 68.4207 43.8764C76.1138 40.1067 91.6465 35.2285 108.425 45.0842C105.258 47.7978 102.563 50.4329 100.831 52.1897H100.836ZM122.1 16.8818L120.938 17.5249C113.763 21.5717 104.95 25.101 98.8947 17.9013C100.852 16.84 103.207 16.1498 106.096 16.0923C107.462 16.0609 108.545 14.9368 108.519 13.5722C108.493 12.2075 107.347 11.2769 105.996 11.1514C102.903 11.2141 100.245 11.8311 97.9423 12.8349C98.2092 11.4442 98.7534 9.91223 99.8996 8.61557C102.166 6.05362 106.211 4.91904 111.868 5.23275C122.152 5.80265 129.835 10.0377 134.576 13.6192C131.085 13.682 126.762 14.4558 122.105 16.8818H122.1Z" fill="url(#paint0_linear_1_192)"/>
<defs>
<linearGradient id="paint0_linear_1_192" x1="144.58" y1="58.4046" x2="0.590464" y2="58.4046" gradientUnits="userSpaceOnUse">
<stop stop-color="#E05231"/>
<stop offset="1" stop-color="#DD4936"/>
</linearGradient>
</defs>
</svg>
