<svg width="127" height="119" viewBox="0 0 127 119" fill="none" xmlns="http://www.w3.org/2000/svg">
<path d="M76.7842 0.821582C76.0202 0.382389 75.0729 0.382389 74.3089 0.821582C73.5448 1.26077 73.0738 2.07642 73.0738 2.96003V13.5372H2.47538C1.10947 13.5372 0 14.6404 0 16.0103V45.6139C0 46.9786 1.10423 48.087 2.47538 48.087H73.0738V58.6642C73.0738 59.5478 73.5448 60.3635 74.3089 60.8027C74.6909 61.0223 75.12 61.1321 75.5439 61.1321C75.9678 61.1321 76.397 61.0223 76.779 60.8027L125.062 32.9767C125.826 32.5375 126.297 31.7219 126.297 30.8383C126.297 29.9547 125.826 29.139 125.062 28.6998L76.779 0.821582H76.7842ZM78.0193 54.3873V45.6192C78.0193 44.2545 76.9151 43.1461 75.5439 43.1461H4.94553V18.4834H75.5439C76.9099 18.4834 78.0193 17.3802 78.0193 16.0103V7.24215L118.882 30.833L78.0193 54.3821V54.3873Z" fill="#F38B1E"/>
<path d="M123.832 70.7313H53.239V60.1541C53.239 59.2705 52.768 58.4549 52.0039 58.0157C51.2346 57.5765 50.2926 57.5765 49.5286 58.0157L1.24008 85.8939C0.476002 86.3331 0.00500488 87.154 0.00500488 88.0324C0.00500488 88.9108 0.476002 89.7316 1.24008 90.1708L49.5286 117.997C49.9106 118.216 50.3397 118.326 50.7636 118.326C51.1875 118.326 51.6167 118.216 51.9987 117.997C52.7628 117.558 53.2338 116.742 53.2338 115.858V105.281H123.827C125.193 105.281 126.302 104.178 126.302 102.808V73.2044C126.302 71.8398 125.198 70.7313 123.827 70.7313H123.832ZM121.357 100.335H50.7636C49.3977 100.335 48.2882 101.438 48.2882 102.808V111.576L7.42074 88.0271L48.2882 64.4362V73.2044C48.2882 74.569 49.3925 75.6775 50.7636 75.6775H121.357V100.34V100.335Z" fill="#F38B1E"/>
</svg>
