<svg width="144" height="145" viewBox="0 0 144 145" fill="none" xmlns="http://www.w3.org/2000/svg">
<path d="M71.7408 23.3894C73.1067 23.3894 74.2162 22.2862 74.2162 20.9163V3.20744C74.2162 1.84281 73.112 0.734375 71.7408 0.734375C70.3697 0.734375 69.2654 1.83758 69.2654 3.20744V20.9163C69.2654 22.2809 70.3697 23.3894 71.7408 23.3894Z" fill="#E56325"/>
<path d="M85.2528 26.5104C85.5878 26.6621 85.9332 26.73 86.2786 26.73C87.2153 26.73 88.1155 26.1915 88.5289 25.2817L95.8662 9.16758C96.4314 7.9232 95.8818 6.45923 94.6415 5.89455C93.4012 5.32988 91.9358 5.87887 91.3654 7.11802L84.0282 23.2322C83.463 24.4766 84.0125 25.9405 85.2528 26.5052V26.5104Z" fill="#E56325"/>
<path d="M54.9507 25.2825C55.3642 26.1922 56.2643 26.7308 57.2011 26.7308C57.5465 26.7308 57.8919 26.6628 58.2268 26.5112C59.4672 25.9465 60.0166 24.4825 59.4514 23.2381L52.1142 7.12396C51.549 5.87959 50.0888 5.33583 48.8381 5.9005C47.5977 6.46518 47.0431 7.92915 47.6135 9.17353L54.9507 25.2877V25.2825Z" fill="#E56325"/>
<path d="M71.7408 121.428C70.3749 121.428 69.2654 122.531 69.2654 123.901V141.605C69.2654 142.97 70.3697 144.078 71.7408 144.078C73.112 144.078 74.2162 142.975 74.2162 141.605V123.901C74.2162 122.537 73.112 121.428 71.7408 121.428Z" fill="#E56325"/>
<path d="M58.2271 118.307C56.992 117.748 55.5214 118.291 54.951 119.531L47.6138 135.645C47.0486 136.889 47.598 138.353 48.8383 138.918C49.1732 139.069 49.5187 139.137 49.8642 139.137C50.8009 139.137 51.701 138.599 52.1144 137.689L59.4516 121.575C60.0168 120.331 59.4674 118.867 58.2271 118.302V118.307Z" fill="#E56325"/>
<path d="M88.5289 119.536C87.9637 118.297 86.4984 117.748 85.2528 118.313C84.0125 118.877 83.463 120.341 84.0282 121.586L91.3654 137.7C91.7788 138.609 92.679 139.148 93.6158 139.148C93.9612 139.148 94.3066 139.08 94.6415 138.928C95.8818 138.364 96.4366 136.9 95.8662 135.655L88.5289 119.541V119.536Z" fill="#E56325"/>
<path d="M22.6709 72.4062C22.6709 71.0415 21.5667 69.9331 20.1956 69.9331H2.47538C1.10947 69.9331 0 71.0363 0 72.4062C0 73.776 1.10423 74.8793 2.47538 74.8793H20.1956C21.5615 74.8793 22.6709 73.776 22.6709 72.4062Z" fill="#E56325"/>
<path d="M24.5709 55.6388L8.44155 48.3032C7.20647 47.7386 5.73588 48.2876 5.16544 49.5267C4.60024 50.7711 5.14979 52.2351 6.3901 52.7997L22.5194 60.1353C22.8544 60.2869 23.1998 60.3549 23.5452 60.3549C24.4819 60.3549 25.3821 59.8164 25.7955 58.9066C26.3608 57.6622 25.8112 56.1982 24.5709 55.6336V55.6388Z" fill="#E56325"/>
<path d="M22.5193 84.6823L6.38991 92.0126C5.1496 92.5773 4.59482 94.0413 5.16526 95.2857C5.57869 96.1954 6.47886 96.7339 7.41564 96.7339C7.76104 96.7339 8.10643 96.666 8.44136 96.5144L24.5707 89.184C25.811 88.6193 26.3606 87.1554 25.7954 85.911C25.2302 84.6718 23.77 84.1228 22.5193 84.6875V84.6823Z" fill="#E56325"/>
<path d="M140.999 69.9387H123.278C121.912 69.9387 120.803 71.0419 120.803 72.4118C120.803 73.7817 121.907 74.8849 123.278 74.8849H140.999C142.365 74.8849 143.474 73.7817 143.474 72.4118C143.474 71.0419 142.37 69.9387 140.999 69.9387Z" fill="#E56325"/>
<path d="M137.084 92.0132L120.955 84.6828C119.714 84.1234 118.249 84.6671 117.679 85.9063C117.113 87.1507 117.663 88.6146 118.903 89.1793L135.033 96.5096C135.367 96.6613 135.713 96.7292 136.058 96.7292C136.995 96.7292 137.895 96.1907 138.309 95.2809C138.874 94.0366 138.324 92.5726 137.084 92.0079V92.0132Z" fill="#E56325"/>
<path d="M119.929 60.3606C120.274 60.3606 120.62 60.2926 120.955 60.141L137.084 52.8054C138.324 52.2408 138.874 50.7768 138.309 49.5324C137.743 48.288 136.278 47.7443 135.033 48.3089L118.903 55.6445C117.663 56.2092 117.113 57.6732 117.679 58.9175C118.092 59.8273 118.992 60.3658 119.929 60.3658V60.3606Z" fill="#E56325"/>
<path d="M109.341 52.36C109.158 52.0986 108.938 51.8842 108.671 51.7117C108.614 51.6751 108.593 51.6071 108.53 51.5757L72.9166 32.1572C72.1839 31.7546 71.2837 31.7546 70.5511 32.1572L34.938 51.5757C34.8804 51.6071 34.8542 51.6751 34.7966 51.7117C34.5297 51.8842 34.3099 52.0986 34.1268 52.36C34.064 52.4489 34.0011 52.5221 33.954 52.6162C33.7708 52.9613 33.6453 53.3325 33.6453 53.7455V91.8089C33.6453 91.9762 33.7081 92.1226 33.7395 92.2794C33.7604 92.3788 33.7656 92.4833 33.8022 92.5827C33.886 92.8336 34.0117 93.048 34.1634 93.2572C34.1948 93.2938 34.2105 93.3356 34.2419 93.3774C34.5088 93.7016 34.8384 93.9578 35.2362 94.1094L70.5772 112.676C70.6296 112.702 70.6872 112.691 70.7395 112.718C70.818 112.754 70.9122 112.754 70.9959 112.78C71.2367 112.859 71.4723 112.963 71.7235 112.963C71.9747 112.963 72.2101 112.859 72.4508 112.78C72.5346 112.754 72.6288 112.749 72.7073 112.718C72.7596 112.697 72.8172 112.707 72.8695 112.676L108.211 94.1094C108.608 93.9578 108.938 93.6964 109.205 93.3774C109.236 93.3408 109.257 93.299 109.283 93.2572C109.435 93.048 109.566 92.8336 109.645 92.5827C109.676 92.4833 109.681 92.384 109.707 92.2794C109.739 92.1226 109.801 91.9762 109.801 91.8089V53.7455C109.801 53.3325 109.676 52.956 109.493 52.6162C109.446 52.5221 109.383 52.4489 109.32 52.36H109.341ZM38.6013 57.8342L69.2637 73.8856V106.391L38.6013 90.2821V57.8342ZM74.2144 73.8856L104.877 57.8342V90.2821L74.2144 106.391V73.8856ZM71.739 37.1451L102.103 53.7037L71.739 69.5983L41.3749 53.7037L71.739 37.1451Z" fill="#E56325"/>
</svg>
