<svg width="128" height="139" viewBox="0 0 128 139" fill="none" xmlns="http://www.w3.org/2000/svg">
<path d="M98.6459 22.5488H78.4921V13.7023C78.4921 12.3376 77.3879 11.2292 76.0168 11.2292H65.1889C63.5142 4.79293 57.7208 0.155273 50.8494 0.155273C43.978 0.155273 38.1427 4.7877 36.4628 11.2292H25.6349C24.269 11.2292 23.1595 12.3324 23.1595 13.7023V22.5488H3.00577C1.63986 22.5488 0.53038 23.6521 0.53038 25.0219V134.992C0.53038 136.357 1.63462 137.466 3.00577 137.466H98.6355C100.001 137.466 101.111 136.362 101.111 134.992V25.0219C101.111 23.6573 100.007 22.5488 98.6355 22.5488H98.6459ZM50.8599 5.10141C54.9838 5.10141 58.5058 7.61108 59.9921 11.2292H41.6805C43.172 7.60585 46.715 5.10141 50.8599 5.10141ZM28.1208 16.1753H73.5518V29.8373H28.1208V16.1753ZM96.1758 132.525H5.49163V27.495H23.17V32.3052C23.17 33.6698 24.2743 34.7783 25.6454 34.7783H76.022C77.3879 34.7783 78.4974 33.675 78.4974 32.3052V27.495H96.1758V132.525Z" fill="url(#paint0_linear_1_180)"/>
<path d="M24.6924 47.3057C19.4747 47.3057 15.2252 51.546 15.2252 56.764C15.2252 61.982 19.4694 66.2171 24.6924 66.2171C29.9153 66.2171 34.1543 61.9768 34.1543 56.764C34.1543 51.5512 29.91 47.3057 24.6924 47.3057ZM24.6924 61.2762C22.2013 61.2762 20.1707 59.2527 20.1707 56.764C20.1707 54.2752 22.196 52.2466 24.6924 52.2466C27.1887 52.2466 29.2088 54.27 29.2088 56.764C29.2088 59.258 27.1834 61.2762 24.6924 61.2762Z" fill="url(#paint1_linear_1_180)"/>
<path d="M43.9226 54.2908C42.5566 54.2908 41.4472 55.394 41.4472 56.7638C41.4472 58.1337 42.5514 59.2369 43.9226 59.2369H83.9684C85.3343 59.2369 86.4438 58.1337 86.4438 56.7638C86.4438 55.394 85.3396 54.2908 83.9684 54.2908H43.9226Z" fill="url(#paint2_linear_1_180)"/>
<path d="M24.6924 73.5942C19.4747 73.5942 15.2252 77.8345 15.2252 83.0473C15.2252 88.2601 19.4694 92.5004 24.6924 92.5004C29.9153 92.5004 34.1543 88.2601 34.1543 83.0473C34.1543 77.8345 29.91 73.5942 24.6924 73.5942ZM24.6924 87.5647C22.2013 87.5647 20.1707 85.5413 20.1707 83.0526C20.1707 80.5638 22.196 78.5404 24.6924 78.5404C27.1887 78.5404 29.2088 80.5638 29.2088 83.0526C29.2088 85.5413 27.1834 87.5647 24.6924 87.5647Z" fill="url(#paint3_linear_1_180)"/>
<path d="M83.961 80.5798H43.9151C42.5491 80.5798 41.4397 81.683 41.4397 83.0529C41.4397 84.4228 42.5439 85.526 43.9151 85.526H83.961C85.3269 85.526 86.4363 84.4228 86.4363 83.0529C86.4363 81.683 85.3321 80.5798 83.961 80.5798Z" fill="url(#paint4_linear_1_180)"/>
<path d="M24.6924 99.8835C19.4747 99.8835 15.2252 104.124 15.2252 109.337C15.2252 114.549 19.4694 118.79 24.6924 118.79C29.9153 118.79 34.1543 114.549 34.1543 109.337C34.1543 104.124 29.91 99.8835 24.6924 99.8835ZM24.6924 113.854C22.2013 113.854 20.1707 111.831 20.1707 109.342C20.1707 106.853 22.196 104.83 24.6924 104.83C27.1887 104.83 29.2088 106.853 29.2088 109.342C29.2088 111.831 27.1834 113.854 24.6924 113.854Z" fill="url(#paint5_linear_1_180)"/>
<path d="M83.961 106.863H43.9151C42.5491 106.863 41.4397 107.966 41.4397 109.336C41.4397 110.706 42.5439 111.809 43.9151 111.809H83.961C85.3269 111.809 86.4363 110.706 86.4363 109.336C86.4363 107.966 85.3321 106.863 83.961 106.863Z" fill="url(#paint6_linear_1_180)"/>
<path d="M117.988 21.3726C112.969 21.3726 108.887 25.4299 108.887 30.4178V116.322C108.887 116.573 108.961 116.803 109.029 117.033C109.029 117.048 109.029 117.069 109.029 117.085L109.044 117.132C109.07 117.205 109.086 117.279 109.118 117.346L115.623 136.969C115.958 137.978 116.905 138.663 117.972 138.663C119.04 138.663 119.982 137.978 120.322 136.969L126.843 117.299C126.843 117.299 126.848 117.273 126.853 117.263L126.911 117.085C126.932 117.022 126.911 116.954 126.927 116.892C126.974 116.703 127.042 116.526 127.042 116.327V30.4178C127.042 25.4299 122.981 21.3726 117.988 21.3726ZM113.833 36.6345H122.096V113.828H113.833V36.6397V36.6345ZM117.988 26.3135C120.254 26.3135 122.096 28.1539 122.096 30.4178V31.6936H113.833V30.4178C113.833 28.1591 115.696 26.3135 117.988 26.3135ZM117.972 128.321L114.806 118.774H121.139L117.972 128.321Z" fill="url(#paint7_linear_1_180)"/>
<defs>
<linearGradient id="paint0_linear_1_180" x1="101.111" y1="68.8104" x2="0.530375" y2="68.8104" gradientUnits="userSpaceOnUse">
<stop stop-color="#E35E22"/>
<stop offset="1" stop-color="#DD5023"/>
</linearGradient>
<linearGradient id="paint1_linear_1_180" x1="34.1543" y1="56.7614" x2="15.2252" y2="56.7614" gradientUnits="userSpaceOnUse">
<stop stop-color="#E35E22"/>
<stop offset="1" stop-color="#DD5023"/>
</linearGradient>
<linearGradient id="paint2_linear_1_180" x1="86.4438" y1="56.7638" x2="41.4472" y2="56.7638" gradientUnits="userSpaceOnUse">
<stop stop-color="#E35E22"/>
<stop offset="1" stop-color="#DD5023"/>
</linearGradient>
<linearGradient id="paint3_linear_1_180" x1="34.1543" y1="83.0473" x2="15.2252" y2="83.0473" gradientUnits="userSpaceOnUse">
<stop stop-color="#E35E22"/>
<stop offset="1" stop-color="#DD5023"/>
</linearGradient>
<linearGradient id="paint4_linear_1_180" x1="86.4363" y1="83.0529" x2="41.4397" y2="83.0529" gradientUnits="userSpaceOnUse">
<stop stop-color="#E35E22"/>
<stop offset="1" stop-color="#DD5023"/>
</linearGradient>
<linearGradient id="paint5_linear_1_180" x1="34.1543" y1="109.337" x2="15.2252" y2="109.337" gradientUnits="userSpaceOnUse">
<stop stop-color="#E35E22"/>
<stop offset="1" stop-color="#DD5023"/>
</linearGradient>
<linearGradient id="paint6_linear_1_180" x1="86.4363" y1="109.336" x2="41.4397" y2="109.336" gradientUnits="userSpaceOnUse">
<stop stop-color="#E35E22"/>
<stop offset="1" stop-color="#DD5023"/>
</linearGradient>
<linearGradient id="paint7_linear_1_180" x1="127.042" y1="80.0178" x2="108.887" y2="80.0178" gradientUnits="userSpaceOnUse">
<stop stop-color="#E35E22"/>
<stop offset="1" stop-color="#DD5023"/>
</linearGradient>
</defs>
</svg>
