<svg width="47" height="21" viewBox="0 0 47 21" fill="none" xmlns="http://www.w3.org/2000/svg">
<path d="M35.5108 0.00956142C35.6113 0.00640615 35.7119 0.00325088 35.8155 0C36.4423 0.0718941 36.8739 0.432148 37.3016 0.836398C37.375 0.904201 37.375 0.904201 37.4499 0.973373C37.61 1.12157 37.7691 1.27063 37.9283 1.41971C38.0405 1.52384 38.1528 1.62792 38.2652 1.73193C38.5601 2.00521 38.8542 2.2792 39.1481 2.55339C39.6178 2.99143 40.0888 3.4284 40.5598 3.86531C40.7231 4.01706 40.8861 4.16914 41.0491 4.32127C41.5034 4.74441 41.9592 5.15963 42.4511 5.5461C42.8332 5.85574 43.1894 6.19118 43.5499 6.52188C43.6781 6.63936 43.6781 6.63936 43.8089 6.75922C43.9885 6.92391 44.168 7.0888 44.3473 7.25378C44.5759 7.46406 44.8053 7.67355 45.035 7.88286C45.2559 8.08453 45.4758 8.2871 45.6959 8.48956C45.8188 8.60128 45.8188 8.60128 45.9442 8.71527C46.5266 9.25401 46.9848 9.69284 46.9907 10.4915C46.9938 10.587 46.9968 10.6826 47 10.781C46.8252 11.6007 46.0553 12.191 45.4348 12.7553C45.3429 12.8398 45.251 12.9243 45.1591 13.0089C44.9676 13.1851 44.7757 13.3608 44.5833 13.5362C44.3387 13.7593 44.0949 13.9832 43.8513 14.2073C43.6164 14.4234 43.3811 14.6391 43.1457 14.8548C43.1018 14.8951 43.058 14.9354 43.0128 14.9768C42.2325 15.6925 42.2325 15.6925 41.8134 16.0225C41.3501 16.3897 40.9258 16.7929 40.4971 17.1935C40.3426 17.3379 40.1877 17.4818 40.0326 17.6257C39.5924 18.0343 39.1526 18.4433 38.7137 18.8532C38.4439 19.105 38.1734 19.3563 37.9025 19.6071C37.8 19.7023 37.6977 19.7978 37.5957 19.8934C37.4531 20.0271 37.3097 20.16 37.166 20.2927C37.0849 20.3683 37.0037 20.444 36.9201 20.5219C36.3783 20.9544 35.9206 21.0143 35.225 20.9975C34.7018 20.944 34.3897 20.7421 34.04 20.3826C33.6658 19.8998 33.5509 19.4482 33.6566 18.8581C33.878 18.3268 34.2161 17.9573 34.6528 17.5638C34.7466 17.4773 34.7466 17.4773 34.8424 17.3889C35.0476 17.2 35.2541 17.0122 35.4607 16.8245C35.6039 16.6931 35.7471 16.5616 35.8902 16.43C36.2657 16.0851 36.6423 15.7413 37.0192 15.3976C37.4041 15.0463 37.7879 14.694 38.1719 14.3418C38.9243 13.6518 39.678 12.9628 40.4324 12.2746C40.3498 12.2746 40.2671 12.2746 40.182 12.2746C35.287 12.2753 30.3919 12.2735 25.4968 12.2682C24.9092 12.2675 24.3216 12.2669 23.734 12.2663C23.617 12.2662 23.5 12.2661 23.3795 12.266C21.4847 12.2641 19.5899 12.264 17.6951 12.2645C15.7512 12.2651 13.8074 12.2637 11.8635 12.2605C10.6638 12.2586 9.46408 12.2582 8.26437 12.2597C7.44195 12.2606 6.61953 12.2597 5.79711 12.2572C5.32244 12.2559 4.84782 12.2554 4.37315 12.2571C3.93848 12.2586 3.50389 12.2578 3.06923 12.2551C2.91209 12.2545 2.75495 12.2549 2.59781 12.2561C1.75605 12.2623 1.05702 12.261 0.418509 11.6837C-0.00127701 11.2307 -0.0142544 10.7898 0.00539406 10.2027C0.0756911 9.76542 0.251684 9.45336 0.601639 9.1516C1.0679 8.86741 1.36238 8.77174 1.9335 8.77112C2.00041 8.77059 2.06732 8.77006 2.13625 8.76951C2.36002 8.76814 2.5837 8.76917 2.80746 8.77018C2.96967 8.76968 3.13187 8.76904 3.29408 8.76826C3.73946 8.76655 4.18482 8.76694 4.63021 8.76766C5.11062 8.76808 5.59103 8.76655 6.07144 8.76526C6.90368 8.7633 7.73591 8.76256 8.56815 8.76266C9.77142 8.7628 10.9747 8.76108 12.178 8.75891C14.1302 8.75544 16.0824 8.75348 18.0346 8.75245C19.9311 8.75146 21.8275 8.74975 23.7239 8.7471C23.8408 8.74693 23.9577 8.74677 24.0781 8.7466C24.6645 8.74578 25.2509 8.74494 25.8373 8.74409C30.7023 8.7371 35.5674 8.73255 40.4324 8.72958C40.3515 8.65582 40.2707 8.58205 40.1874 8.50605C39.4252 7.8103 38.664 7.11366 37.9037 6.41614C37.5128 6.05757 37.1216 5.69933 36.7296 5.34181C36.3512 4.99667 35.9737 4.65072 35.5968 4.30418C35.4529 4.17221 35.3088 4.04054 35.1643 3.90917C34.9617 3.72491 34.7604 3.53962 34.5592 3.35406C34.4994 3.30015 34.4396 3.24624 34.378 3.19069C33.9243 2.76861 33.6176 2.34742 33.6165 1.7293C33.6366 1.22115 33.7973 0.84367 34.1802 0.475434C34.6129 0.119642 34.9246 0.0214982 35.5108 0.00956142Z" fill="url(#paint0_linear_14_63)"/>
<defs>
<linearGradient id="paint0_linear_14_63" x1="23.5" y1="0" x2="23.5" y2="21" gradientUnits="userSpaceOnUse">
<stop stop-color="#F7961D"/>
<stop offset="1" stop-color="#CB2027"/>
</linearGradient>
</defs>
</svg>
