<svg width="25" height="12" viewBox="0 0 25 12" fill="none" xmlns="http://www.w3.org/2000/svg">
<path d="M18.8887 0.00546367C18.9422 0.00366066 18.9957 0.00185765 19.0508 0C19.3842 0.0410823 19.6138 0.246942 19.8413 0.477942C19.8803 0.516686 19.8803 0.516686 19.9202 0.556213C20.0053 0.640897 20.09 0.726076 20.1746 0.811261C20.2343 0.870767 20.294 0.930238 20.3538 0.989674C20.5107 1.14583 20.6671 1.3024 20.8234 1.45908C21.0733 1.70939 21.3238 1.95909 21.5743 2.20875C21.6612 2.29546 21.7479 2.38236 21.8346 2.46929C22.0763 2.71109 22.3187 2.94836 22.5804 3.1692C22.7836 3.34614 22.9731 3.53782 23.1648 3.72679C23.233 3.79392 23.233 3.79392 23.3026 3.86241C23.3982 3.95652 23.4936 4.05074 23.589 4.14502C23.7106 4.26518 23.8326 4.38488 23.9548 4.50449C24.0723 4.61973 24.1893 4.73549 24.3063 4.85117C24.3717 4.91502 24.3717 4.91502 24.4384 4.98015C24.7482 5.288 24.9919 5.53877 24.9951 5.99515C24.9967 6.04974 24.9983 6.10433 25 6.16057C24.907 6.62896 24.4975 6.96628 24.1675 7.28873C24.1185 7.33701 24.0697 7.38532 24.0208 7.43366C23.9189 7.53433 23.8168 7.63475 23.7145 7.73498C23.5844 7.86247 23.4547 7.99038 23.3252 8.11845C23.2002 8.24194 23.075 8.36521 22.9498 8.48847C22.9265 8.51148 22.9032 8.53449 22.8791 8.5582C22.4641 8.96715 22.4641 8.96715 22.2411 9.15572C21.9948 9.36553 21.769 9.59595 21.541 9.82487C21.4588 9.90735 21.3764 9.98962 21.294 10.0718C21.0598 10.3053 20.8258 10.539 20.5924 10.7732C20.4489 10.9172 20.305 11.0607 20.1609 11.2041C20.1064 11.2585 20.052 11.313 19.9977 11.3677C19.9219 11.4441 19.8456 11.52 19.7692 11.5958C19.726 11.6391 19.6828 11.6823 19.6384 11.7268C19.3502 11.9739 19.1067 12.0082 18.7367 11.9986C18.4584 11.968 18.2924 11.8526 18.1064 11.6472C17.9073 11.3713 17.8462 11.1133 17.9024 10.7761C18.0202 10.4725 18.2 10.2613 18.4323 10.0365C18.4823 9.987 18.4823 9.987 18.5332 9.93652C18.6424 9.82855 18.7522 9.72127 18.8621 9.61399C18.9383 9.53889 19.0144 9.46374 19.0905 9.38856C19.2903 9.19149 19.4906 8.99501 19.6911 8.79865C19.8958 8.59789 20.1 8.39658 20.3042 8.19532C20.7044 7.80102 21.1053 7.40733 21.5066 7.01403C21.4626 7.01404 21.4187 7.01405 21.3734 7.01406C18.7697 7.01449 16.1659 7.01341 13.5621 7.01038C13.2496 7.01002 12.937 7.00967 12.6244 7.00933C12.5622 7.00926 12.5 7.00919 12.4359 7.00912C11.428 7.00804 10.4202 7.00798 9.4123 7.0083C8.37832 7.0086 7.34434 7.00781 6.31036 7.00601C5.67221 7.00493 5.03409 7.0047 4.39594 7.00557C3.95848 7.00608 3.52103 7.00553 3.08357 7.00414C2.83109 7.00337 2.57863 7.00307 2.32614 7.00403C2.09494 7.0049 1.86377 7.00444 1.63257 7.00292C1.54898 7.0026 1.4654 7.00277 1.38181 7.00348C0.934069 7.00702 0.562243 7.00628 0.222611 6.67642C-0.000679262 6.41755 -0.00758212 6.16559 0.00286918 5.83011C0.0402612 5.58024 0.133875 5.40192 0.320021 5.22949C0.568032 5.06709 0.724668 5.01242 1.02846 5.01207C1.06405 5.01177 1.09964 5.01146 1.1363 5.01115C1.25533 5.01037 1.37431 5.01095 1.49333 5.01153C1.57961 5.01125 1.66589 5.01088 1.75217 5.01044C1.98908 5.00946 2.22597 5.00968 2.46288 5.01009C2.71842 5.01033 2.97395 5.00946 3.22949 5.00872C3.67217 5.0076 4.11484 5.00718 4.55753 5.00723C5.19757 5.00731 5.8376 5.00633 6.47764 5.00509C7.51606 5.00311 8.55447 5.00199 9.59289 5.0014C10.6016 5.00083 11.6104 4.99986 12.6191 4.99834C12.6813 4.99825 12.7434 4.99815 12.8075 4.99806C13.1194 4.99759 13.4313 4.99711 13.7433 4.99662C16.331 4.99263 18.9188 4.99003 21.5066 4.98833C21.4636 4.94618 21.4206 4.90403 21.3763 4.8606C20.9709 4.46303 20.5659 4.06495 20.1615 3.66636C19.9536 3.46147 19.7455 3.25676 19.537 3.05246C19.3357 2.85524 19.1349 2.65755 18.9345 2.45953C18.8579 2.38412 18.7813 2.30888 18.7044 2.23381C18.5967 2.12852 18.4896 2.02264 18.3826 1.91661C18.3508 1.8858 18.3189 1.85499 18.2862 1.82325C18.0448 1.58206 17.8817 1.34138 17.8811 0.988171C17.8918 0.697798 17.9773 0.482097 18.181 0.271676C18.4111 0.0683667 18.5769 0.0122847 18.8887 0.00546367Z" fill="white"/>
</svg>
