<svg width="80" height="80" viewBox="0 0 80 80" fill="none" xmlns="http://www.w3.org/2000/svg">
<path d="M33.0459 40.4816C32.5337 39.996 32.5177 39.1921 33.0059 38.6906C33.494 38.1891 34.3023 38.1652 34.8065 38.6508L37.5113 41.2298L43.8174 34.4399C44.2976 33.9225 45.1058 33.8907 45.618 34.3683C46.1382 34.8459 46.1702 35.6499 45.69 36.1593L38.5037 43.9044C38.2716 44.1511 37.9515 44.3024 37.6074 44.3103C37.5914 44.3103 37.5834 44.3103 37.5674 44.3103C37.2393 44.3103 36.9192 44.183 36.6871 43.9601L33.0379 40.4895L33.0459 40.4816ZM26.8678 31.4709L24.331 27.467L27.7481 24.076L31.7735 26.5993C32.1576 26.8381 32.6377 26.862 33.0379 26.6551C33.7341 26.3048 34.4543 26.0023 35.1826 25.7715C35.6147 25.6362 35.9428 25.278 36.0389 24.8402L37.0872 20.2234H41.9128L42.9611 24.8402C43.0652 25.278 43.3853 25.6362 43.8174 25.7715C44.5457 26.0023 45.2659 26.2969 45.9621 26.6551C46.3623 26.862 46.8424 26.8381 47.2265 26.5993L51.2439 24.076L54.653 27.467L52.1161 31.4709C51.8761 31.845 51.8521 32.3305 52.0601 32.7285C52.4122 33.4211 52.7163 34.1375 52.9564 34.8698C53.0925 35.2996 53.4526 35.618 53.8927 35.7215L58.5263 36.7643V41.5641L53.8927 42.6069C53.4526 42.7024 53.1005 43.0288 52.9564 43.4507C52.7163 44.1909 52.4202 44.9073 52.0681 45.5919C51.8601 45.9899 51.8841 46.4675 52.1242 46.8496L54.661 50.8535L51.2519 54.2524L47.2265 51.7291C46.8424 51.4903 46.3623 51.4664 45.9621 51.6733C45.2739 52.0236 44.5537 52.326 43.8094 52.5569C43.3773 52.6922 43.0572 53.0504 42.9611 53.4882L41.9848 57.7786H37.0152L36.0389 53.4962C35.9428 53.0584 35.6147 52.7081 35.1906 52.5649C34.4463 52.3261 33.7261 52.0315 33.0379 51.6813C32.6377 51.4743 32.1576 51.4982 31.7735 51.737L27.7481 54.2603L24.339 50.8694L26.8758 46.8655C27.1159 46.4834 27.1399 46.0058 26.9319 45.6078C26.5798 44.9233 26.2757 44.2069 26.0356 43.4666C25.8995 43.0367 25.5394 42.7183 25.0993 42.6228L20.4657 41.5801V36.7802L25.1073 35.7374C25.5474 35.6419 25.9075 35.3155 26.0436 34.8857C26.2757 34.1613 26.5717 33.4449 26.9319 32.7445C27.1399 32.3465 27.1159 31.8689 26.8758 31.4868L26.8678 31.4709ZM30.1489 39.1602C30.1489 41.6437 31.1252 43.976 32.8858 45.7352C36.535 49.357 42.465 49.357 46.1062 45.7352C47.8748 43.976 48.8431 41.6437 48.8431 39.1602C48.8431 36.6767 47.8668 34.3365 46.1062 32.5853C44.3456 30.8341 41.8888 29.8629 39.496 29.8629C37.1032 29.8629 34.7104 30.7704 32.8858 32.5853C31.0612 34.4001 30.1489 36.6767 30.1489 39.1602ZM61.2552 54.6663L49.5393 66.3197C48.571 67.3943 47.1945 68.0152 45.722 68.0152H37.0712C36.367 68.0152 35.7988 67.45 35.7988 66.7496C35.7988 66.0491 36.367 65.4839 37.0712 65.4839H45.722C46.4983 65.4839 47.2265 65.1416 47.7147 64.5446C47.8027 64.4412 47.8828 64.3297 47.9548 64.2103C47.9548 64.2103 47.9548 64.2103 47.9548 64.2024C48.1869 63.8044 48.3149 63.3506 48.3149 62.889C48.3149 61.4641 47.1465 60.302 45.714 60.302H27.0519C23.9789 60.302 23.0986 61.7188 21.4901 64.2899C21.322 64.5526 21.154 64.8232 20.9779 65.1018L16.3764 72.2897L23.1146 79L25.4594 75.3543C25.6915 74.9961 26.0836 74.7732 26.5157 74.7653L46.1702 74.4867L46.5543 74.4469C48.1949 74.2797 49.5073 73.6588 50.6757 72.4887L67.5372 55.725L65.6966 53.8942C64.7843 52.9867 62.3435 53.5758 61.2552 54.6583V54.6663ZM18.9132 31.24C19.3374 30.9375 19.5294 30.4042 19.4014 29.8948L18.4891 26.3605L21.314 24.0362C21.7142 23.7019 21.8742 23.1606 21.7142 22.6671C21.5541 22.1736 21.106 21.8233 20.5778 21.7915L16.9206 21.5607L15.5681 18.1697C15.3761 17.6842 14.9039 17.3658 14.3837 17.3658C13.8636 17.3658 13.3914 17.6842 13.1994 18.1697L11.8469 21.5607L8.1897 21.7915C7.66953 21.8233 7.22139 22.1736 7.06133 22.6671C6.90128 23.1606 7.06133 23.7019 7.46146 24.0362L10.2864 26.3605L9.37409 29.8948C9.24605 30.3963 9.43811 30.9296 9.86225 31.24C10.0863 31.3992 10.3504 31.4788 10.6145 31.4788C10.8546 31.4788 11.0867 31.4151 11.2947 31.2798L14.3917 29.3217L17.4888 31.2798C17.9289 31.5584 18.4971 31.5425 18.9212 31.2321L18.9132 31.24ZM71.9467 22.6671C71.7866 22.1736 71.3385 21.8233 70.8103 21.7915L67.1531 21.5607L65.8006 18.1697C65.6086 17.6842 65.1364 17.3658 64.6163 17.3658C64.0961 17.3658 63.6239 17.6842 63.4319 18.1618L62.0714 21.5527L58.4142 21.7836C57.8941 21.8154 57.4459 22.1656 57.2778 22.6591C57.1098 23.1527 57.2778 23.6939 57.678 24.0283L60.5029 26.3526L59.5906 29.8868C59.4626 30.3883 59.6546 30.9216 60.0788 31.2321C60.3028 31.3913 60.5669 31.4709 60.831 31.4709C61.0711 31.4709 61.3032 31.4072 61.5112 31.2719L64.6083 29.3137L67.7053 31.2719C68.1454 31.5505 68.7136 31.5345 69.1377 31.2241C69.5619 30.9137 69.7539 30.3883 69.6259 29.8789L68.7136 26.3446L71.5385 24.0203C71.9387 23.686 72.0987 23.1447 71.9387 22.6512L71.9467 22.6671ZM31.7334 8.25952L35.0225 10.9739L33.9582 15.0972C33.8301 15.5986 34.0222 16.132 34.4463 16.4424C34.6704 16.6016 34.9345 16.6892 35.1986 16.6892C35.4387 16.6892 35.6707 16.6255 35.8788 16.4902L39.496 14.2136L43.1052 16.4902C43.5453 16.7688 44.1135 16.7528 44.5377 16.4424C44.9618 16.1399 45.1539 15.6066 45.0258 15.1051L43.9695 10.9818L47.2586 8.26748C47.6587 7.93316 47.8187 7.39188 47.6587 6.89836C47.4986 6.40484 47.0505 6.0546 46.5223 6.02276L42.2489 5.75212L40.6724 1.80396C40.4803 1.3184 40.0082 1 39.488 1C38.9678 1 38.4957 1.3184 38.3036 1.80396L36.7271 5.76008L32.4617 6.03072C31.9415 6.06256 31.4934 6.4128 31.3333 6.90632C31.1733 7.39984 31.3333 7.94112 31.7334 8.27544V8.25952Z" fill="white"/>
</svg>
