<svg width="68" height="67" viewBox="0 0 68 67" fill="none" xmlns="http://www.w3.org/2000/svg">
<g clip-path="url(#clip0_312_2892)">
<path d="M30.0524 34.8578L27.212 24.5941C27.1532 24.3848 26.9835 24.254 26.7745 24.254C26.7484 24.254 26.7223 24.254 26.6962 24.254L16.1834 25.7978C16.1377 25.8043 16.0528 25.8174 15.9484 25.9744L4.06441 44.258C3.94688 44.4477 3.99259 44.6962 4.18195 44.8205L17.5416 53.5404C17.6591 53.6189 17.7832 53.6123 17.842 53.5993C17.9007 53.5862 18.0183 53.5469 18.0966 53.4226L29.9871 35.1456C30.0785 35.0148 30.0654 34.9232 30.0524 34.8643V34.8578ZM22.0144 39.4303L17.1172 46.9662C16.8625 47.3521 16.4773 47.6203 16.0202 47.7119C15.9027 47.7381 15.7786 47.7511 15.6611 47.7511C15.328 47.7511 15.0081 47.6596 14.7208 47.4699L10.8552 44.9448C10.47 44.6962 10.2023 44.3038 10.1109 43.8458C10.0194 43.3879 10.0978 42.93 10.3525 42.5441L15.2497 35.0082C15.7721 34.2102 16.8495 33.9812 17.6461 34.5046L21.5051 37.0296C21.8903 37.2782 22.1581 37.6707 22.2495 38.122C22.3409 38.5734 22.2625 39.0378 22.0079 39.4238L22.0144 39.4303ZM26.0105 32.529C25.3184 33.5953 24.1561 34.1775 22.9677 34.1775C22.2886 34.1775 21.603 33.9878 20.9958 33.5887C19.3242 32.5028 18.8475 30.246 19.938 28.5714C21.0284 26.8968 23.2811 26.4192 24.9527 27.5117C26.6243 28.5976 27.101 30.8544 26.0105 32.529ZM24.6916 31.6655C24.0712 32.614 22.8045 32.8823 21.8577 32.2608C20.9109 31.6459 20.6432 30.3703 21.2635 29.4283C21.6553 28.8265 22.3148 28.4994 22.9808 28.4994C23.366 28.4994 23.7513 28.6041 24.0974 28.833C25.0442 29.448 25.3119 30.717 24.6916 31.6655ZM20.715 38.4556C20.715 38.4556 20.7215 38.5276 20.6954 38.5734L15.7982 46.1092C15.7525 46.1812 15.6545 46.2008 15.5827 46.155L11.7172 43.63C11.6714 43.6038 11.6584 43.558 11.6519 43.5319C11.6519 43.5057 11.6388 43.4599 11.6714 43.4141L16.5687 35.8848C16.6013 35.839 16.6536 35.8129 16.7058 35.8129C16.7384 35.8129 16.7646 35.8194 16.7907 35.839L20.6497 38.364C20.6954 38.3902 20.7085 38.436 20.715 38.4622V38.4556ZM43.1313 18.2685V11.1121L50.7644 18.7591H43.621C43.3533 18.7591 43.1313 18.5367 43.1313 18.2685ZM31.3061 36.0091C31.626 35.5316 31.7174 34.969 31.5738 34.4391L29.6018 27.3154H45.051C45.4819 27.3154 45.8345 27.6687 45.8345 28.1004V40.8695C45.8345 41.3012 45.4819 41.6544 45.051 41.6544H28.9815C28.5571 41.6544 28.198 41.2947 28.198 40.8695V40.791L31.3061 36.0156V36.0091ZM56.4779 46.7437H63.5952L62.1391 50.1453H57.9405L56.4844 46.7437H56.4779ZM59.2464 45.1672H56.0665V23.0765H59.2464V45.1738V45.1672ZM60.8201 23.07H64V45.1672H60.8201V23.0765V23.07ZM58.6065 51.7218H61.4534L60.03 55.0449L58.6065 51.7218ZM63.9935 14.2324V17.0125H56.0665V14.2324C56.0665 12.041 57.8425 10.2617 60.03 10.2617C62.2174 10.2617 63.9935 12.041 63.9935 14.2324ZM41.5576 18.2619V10H23.9472C22.9547 10 22.145 10.8046 22.145 11.7989V23.3382L26.4741 22.7036C27.4993 22.5532 28.4526 23.1681 28.7334 24.1755L29.1644 25.7389H45.0444C46.3438 25.7389 47.4017 26.7986 47.4017 28.1004V40.8695C47.4017 42.1712 46.3438 43.2309 45.0444 43.2309H28.975C28.2437 43.2309 27.5972 42.8973 27.1598 42.3805L22.1385 50.0995V54.2011C22.1385 55.1954 22.9481 56 23.9406 56H50.0723C51.0648 56 51.8745 55.1954 51.8745 54.2011V20.3356H43.6145C42.4718 20.3356 41.5511 19.4067 41.5511 18.2685L41.5576 18.2619ZM27.4079 13.1334H31.7436C32.1745 13.1334 32.5271 13.4866 32.5271 13.9184C32.5271 14.3501 32.1745 14.7034 31.7436 14.7034H27.4079C26.9769 14.7034 26.6243 14.3501 26.6243 13.9184C26.6243 13.4866 26.9769 13.1334 27.4079 13.1334ZM28.8705 18.0722H27.4079C26.9769 18.0722 26.6243 17.719 26.6243 17.2873C26.6243 16.8555 26.9769 16.5023 27.4079 16.5023H28.8705C29.3015 16.5023 29.6541 16.8555 29.6541 17.2873C29.6541 17.719 29.3015 18.0722 28.8705 18.0722ZM36.6408 18.0722H32.3051C31.8742 18.0722 31.5216 17.719 31.5216 17.2873C31.5216 16.8555 31.8742 16.5023 32.3051 16.5023H36.6408C37.0718 16.5023 37.4244 16.8555 37.4244 17.2873C37.4244 17.719 37.0718 18.0722 36.6408 18.0722ZM36.6408 14.7099H35.1782C34.7472 14.7099 34.3946 14.3567 34.3946 13.9249C34.3946 13.4932 34.7472 13.1399 35.1782 13.1399H36.6408C37.0718 13.1399 37.4244 13.4932 37.4244 13.9249C37.4244 14.3567 37.0718 14.7099 36.6408 14.7099ZM31.9852 51.7022H27.4928C27.0618 51.7022 26.7092 51.349 26.7092 50.9172C26.7092 50.4855 27.0618 50.1323 27.4928 50.1323H31.9852C32.4161 50.1323 32.7687 50.4855 32.7687 50.9172C32.7687 51.349 32.4161 51.7022 31.9852 51.7022ZM27.4928 48.353C27.0618 48.353 26.7092 47.9997 26.7092 47.568C26.7092 47.1362 27.0618 46.783 27.4928 46.783H36.4841C36.915 46.783 37.2676 47.1362 37.2676 47.568C37.2676 47.9997 36.915 48.353 36.4841 48.353H27.4928ZM46.6181 51.7022H37.6268C37.1958 51.7022 36.8432 51.349 36.8432 50.9172C36.8432 50.4855 37.1958 50.1323 37.6268 50.1323H46.6181C47.049 50.1323 47.4017 50.4855 47.4017 50.9172C47.4017 51.349 47.049 51.7022 46.6181 51.7022ZM46.6181 48.353H41.7796C41.3487 48.353 40.9961 47.9997 40.9961 47.568C40.9961 47.1362 41.3487 46.783 41.7796 46.783H46.6181C47.049 46.783 47.4017 47.1362 47.4017 47.568C47.4017 47.9997 47.049 48.353 46.6181 48.353ZM56.073 18.589H64V21.5H56.0665V18.589H56.073Z" fill="white"/>
</g>
<defs>
<clipPath id="clip0_312_2892">
<rect width="66.6457" height="66.6457" fill="white" transform="translate(0.979614 0.15918)"/>
</clipPath>
</defs>
</svg>
