<svg width="38" height="31" viewBox="0 0 38 31" fill="none" xmlns="http://www.w3.org/2000/svg">
<path d="M30.2797 10.4004C32.0398 10.4004 33.6798 10.8404 35.1599 11.6405C35.8799 8.56034 35.0399 5.1602 32.6398 2.76011C30.7997 0.920036 28.3596 0 25.9195 0C23.5194 0 21.0793 0.920036 19.2393 2.76011L17.6792 4.32017L16.1191 2.76011C14.2791 0.920036 11.839 0 9.39887 0C6.91877 0 4.39867 0.960038 2.5586 2.92012C-1.00154 6.68026 -0.801532 12.6405 2.87861 16.3206L16.5592 30.0012C17.1992 30.6412 18.1992 30.6412 18.7992 30.0012L21.8394 26.9611C20.5593 25.241 19.8393 23.1209 19.8393 20.8408C19.8393 15.0806 24.5195 10.4004 30.2797 10.4004Z" fill="black"/>
<path d="M30.2398 13.0806C25.9596 13.0806 22.4795 16.5607 22.4795 20.8409C22.4795 25.121 25.9596 28.6012 30.2398 28.6012C34.52 28.6012 38.0001 25.121 38.0001 20.8409C38.0001 16.5607 34.52 13.0806 30.2398 13.0806ZM34.56 21.7209C34.56 22.0009 34.32 22.2409 34.0399 22.2409H31.7199V24.561C31.7199 24.841 31.4798 25.081 31.1998 25.081H29.3998C29.1198 25.081 28.8797 24.841 28.8797 24.561V22.2409H26.5597C26.2796 22.2409 26.0396 22.0009 26.0396 21.7209V19.9208C26.0396 19.6408 26.2796 19.4008 26.5597 19.4008H28.8797V17.0807C28.8797 16.8007 29.1198 16.5607 29.3998 16.5607H31.1998C31.4798 16.5607 31.7199 16.8007 31.7199 17.0807V19.4008H34.0399C34.32 19.4008 34.56 19.6408 34.56 19.9208V21.7209Z" fill="black"/>
</svg>
