<svg width="221" height="68" viewBox="0 0 221 68" fill="none" xmlns="http://www.w3.org/2000/svg">
<g clip-path="url(#clip0_53_817)">
<path d="M37.7154 43.6789C48.4093 36.0078 50.8755 21.1331 43.2005 10.4445C38.417 3.77214 30.8058 0.308454 23.1521 0.499701C18.5599 0.627198 13.9465 2.07217 9.92827 4.94087C-0.744357 12.6332 -3.21054 27.5079 4.4644 38.1965C10.6724 46.8451 21.6214 50.1175 31.231 46.9726C33.4846 46.2288 35.6744 45.1451 37.7154 43.6789Z" fill="#F8971D"/>
<path d="M51.5986 63.0373C62.2925 55.3662 64.7587 40.4915 57.0838 29.8029C52.3002 23.1305 44.6891 19.6668 37.0354 19.8793C32.4432 20.0068 27.8297 21.4518 23.8115 24.3205C13.1176 31.9916 10.6514 46.8663 18.3264 57.5549C24.5344 66.2247 35.4834 69.4759 45.093 66.331C47.3466 65.5872 49.5364 64.5035 51.5774 63.0373" fill="#CB2027"/>
<path d="M10.7364 56.6206C13.075 54.9419 13.6278 51.6694 11.9483 49.332C10.9065 47.8658 9.22694 47.1008 7.54739 47.1433C6.54815 47.1645 5.52766 47.4833 4.656 48.1208C2.31737 49.7995 1.76461 53.0719 3.44416 55.4094C4.80482 57.3006 7.20722 58.0231 9.31198 57.3431C9.80097 57.1731 10.29 56.9393 10.7364 56.6206Z" fill="#CB2027"/>
<path d="M54.1713 20.8357C55.3406 20.0069 55.5957 18.392 54.7665 17.2232C54.2563 16.5008 53.4271 16.1183 52.598 16.1395C52.109 16.1395 51.5988 16.3095 51.1736 16.6283C50.0042 17.457 49.7491 19.072 50.5783 20.2407C51.2586 21.1757 52.4492 21.5369 53.4909 21.1969C53.746 21.1119 53.9799 21.0057 54.1925 20.8357" fill="#F8971D"/>
<path d="M92.4818 14.4605C92.6731 13.9505 92.9283 13.5893 93.2897 13.3768C93.6299 13.1643 94.1188 13.058 94.7779 13.058C95.4795 13.058 95.9685 13.228 96.2661 13.568C96.5425 13.908 96.6913 14.6093 96.6913 15.6717C96.6913 17.5417 96.6913 19.2629 96.7551 20.8779C96.7976 22.4929 96.8189 23.1729 96.8189 22.9816C96.8189 23.8741 96.6701 24.4691 96.3724 24.7878C96.0748 25.1066 95.522 25.2553 94.7566 25.2553C93.5023 25.2553 92.6944 24.3628 92.3117 22.5779C92.1842 22.0466 92.0779 21.6429 91.9928 21.3454C91.6314 19.9217 90.7597 18.7529 89.3991 17.8605C88.0384 16.968 86.4226 16.5005 84.573 16.5005C81.2139 16.5005 78.5138 17.733 76.4729 20.1979C74.4319 22.6629 73.4114 25.9566 73.4114 30.1002C73.4114 34.2439 74.4531 37.5376 76.5154 40.0025C78.5776 42.4675 81.2989 43.7 84.6793 43.7C85.7848 43.7 86.9116 43.5512 88.0384 43.2325C89.1865 42.9137 90.292 42.4462 91.3975 41.83C91.9078 41.575 92.6094 41.1075 93.5023 40.47C94.3952 39.8325 95.033 39.5138 95.4157 39.5138C96.011 39.5138 96.5 39.705 96.9039 40.1088C97.3079 40.4913 97.5205 40.98 97.5205 41.5538C97.5205 42.1275 97.2866 42.68 96.8402 43.19C96.3937 43.7212 95.5645 44.3587 94.3527 45.1237C92.7582 46.1649 91.1424 46.9299 89.5266 47.4399C87.9109 47.9286 86.21 48.1836 84.4242 48.1836C79.7257 48.1836 75.8563 46.5262 72.7948 43.2112C69.7334 39.8963 68.2026 35.6464 68.2026 30.4827C68.2026 25.3191 69.7546 21.1329 72.8586 17.733C75.9626 14.3543 79.8532 12.6543 84.5517 12.6543C85.8061 12.6543 87.0817 12.803 88.3786 13.1005C89.6755 13.398 91.0574 13.8655 92.5031 14.4605" fill="white"/>
<path d="M117.314 43.2968H119.249C120.354 43.2968 121.141 43.4456 121.587 43.7643C122.055 44.0618 122.268 44.5718 122.268 45.273C122.268 46.038 122.076 46.5693 121.672 46.8668C121.268 47.1643 120.524 47.3343 119.419 47.3343H109.83C109.193 47.3343 108.682 47.1643 108.342 46.803C108.002 46.4418 107.832 45.953 107.832 45.273C107.832 44.5718 108.023 44.0618 108.406 43.7643C108.789 43.4668 109.405 43.2968 110.298 43.2968H112.892V17.3511H111.234C109.809 17.3511 108.895 17.2236 108.47 16.9473C108.045 16.6923 107.832 16.1823 107.832 15.4386C107.832 14.8011 108.002 14.3124 108.342 13.9936C108.682 13.6749 109.171 13.5049 109.83 13.5049H121.864C124.776 13.5049 126.945 13.6536 128.369 13.9086C129.794 14.1849 131.027 14.6524 132.005 15.3111C133.281 16.1611 134.28 17.2873 135.024 18.711C135.768 20.1348 136.129 21.6222 136.129 23.2372C136.129 25.4259 135.449 27.2959 134.11 28.8683C132.77 30.4408 130.899 31.5245 128.518 32.1408C129.007 32.417 129.454 32.757 129.836 33.1395C130.219 33.522 130.602 33.9683 130.963 34.4995L136.703 43.2756H137.639C138.702 43.2756 139.446 43.4243 139.829 43.7218C140.233 44.0193 140.424 44.5293 140.424 45.2518C140.424 45.9105 140.254 46.4205 139.935 46.7818C139.595 47.143 139.106 47.313 138.468 47.313H135.236C134.301 47.313 133.387 46.633 132.494 45.2518C132.388 45.1455 132.303 45.0393 132.239 44.9755L126.754 36.6882C125.627 34.9882 124.713 33.9045 123.969 33.4158C123.246 32.927 122.268 32.672 121.077 32.672H117.293V43.2968H117.314ZM117.314 17.3511V28.8683H123.224C125.882 28.8683 127.88 28.3796 129.22 27.4234C130.559 26.4671 131.24 25.0434 131.24 23.131C131.24 21.2185 130.58 19.7735 129.262 18.796C127.944 17.8186 125.988 17.3511 123.395 17.3511H117.314Z" fill="white"/>
<path d="M151.543 17.6273H151.075C149.927 17.6273 149.162 17.4786 148.715 17.1811C148.29 16.8836 148.078 16.3523 148.078 15.5873C148.078 14.8861 148.248 14.3761 148.609 14.0361C148.971 13.6961 149.502 13.5261 150.225 13.5261H157.347C158.878 13.5261 159.856 13.6749 160.281 13.9724C160.706 14.2699 160.898 14.8011 160.898 15.5873C160.898 16.3736 160.642 16.8836 160.153 17.1811C159.664 17.4786 158.729 17.6273 157.326 17.6273H156.093V33.2458C156.093 35.3495 156.199 36.8794 156.39 37.8569C156.582 38.8132 156.922 39.6844 157.368 40.4919C158.027 41.6394 158.963 42.5531 160.153 43.1906C161.344 43.8281 162.662 44.1681 164.108 44.1681C166.829 44.1681 168.806 43.3393 170.061 41.7244C171.294 40.0881 171.932 37.4532 171.932 33.7983V17.6273H170.422C168.934 17.6273 167.935 17.4786 167.446 17.1811C166.935 16.8836 166.68 16.3523 166.68 15.5661C166.68 14.7799 166.872 14.2486 167.276 13.9511C167.68 13.6536 168.509 13.5049 169.763 13.5049H177.438C178.118 13.5049 178.65 13.6749 178.99 14.0149C179.351 14.3549 179.522 14.8649 179.522 15.5448C179.522 16.3098 179.309 16.8411 178.905 17.1386C178.48 17.4361 177.714 17.5848 176.63 17.5848H176.226V34.372C176.226 38.9832 175.184 42.4468 173.122 44.763C171.06 47.0793 167.956 48.2267 163.81 48.2267C160.068 48.2267 157.071 47.0793 154.838 44.763C152.606 42.4468 151.479 39.3444 151.479 35.4345V17.5848L151.543 17.6273Z" fill="white"/>
<path d="M192.044 17.6273C191.236 17.5848 190.641 17.4148 190.279 17.0961C189.918 16.7773 189.748 16.2673 189.748 15.5661C189.748 14.9074 189.918 14.3974 190.237 14.0361C190.577 13.6749 191.066 13.5049 191.704 13.5049H198.89C199.591 13.5049 200.123 13.6749 200.505 14.0361C200.867 14.3974 201.058 14.8861 201.058 15.5661C201.058 16.2461 200.824 16.7136 200.356 17.0748C199.889 17.4361 199.23 17.6061 198.379 17.6061H197.55L204.013 26.7646L210.753 17.6061H209.86C208.946 17.6061 208.244 17.4148 207.713 17.0536C207.202 16.6923 206.947 16.1823 206.947 15.5661C206.947 14.9499 207.139 14.4399 207.542 14.0786C207.946 13.7174 208.478 13.5261 209.158 13.5261H216.344C216.982 13.5261 217.471 13.6961 217.811 14.0574C218.151 14.4186 218.321 14.9074 218.321 15.5873C218.321 16.3098 218.13 16.8411 217.726 17.1598C217.343 17.4786 216.706 17.6486 215.813 17.6486L206.713 29.9733L216.642 43.3393C217.471 43.4031 218.088 43.5943 218.491 43.9131C218.895 44.2318 219.087 44.6993 219.087 45.3155C219.087 45.9318 218.895 46.4418 218.513 46.8243C218.13 47.1855 217.62 47.3768 216.982 47.3768H209.328C208.329 47.3768 207.67 47.228 207.33 46.9305C206.99 46.633 206.82 46.1018 206.82 45.3368C206.82 44.5718 207.032 44.0831 207.436 43.8068C207.861 43.5306 208.669 43.3818 209.881 43.3818H211.05L203.737 33.3095L196.551 43.3818H197.827C199.145 43.3818 200.016 43.5306 200.484 43.8068C200.952 44.0831 201.164 44.6143 201.164 45.3368C201.164 46.0593 200.973 46.633 200.612 46.9305C200.25 47.228 199.57 47.3768 198.592 47.3768H191.002C190.343 47.3768 189.833 47.1855 189.45 46.8243C189.067 46.4418 188.876 45.953 188.876 45.3155C188.876 44.6781 189.067 44.1893 189.471 43.8706C189.875 43.5518 190.513 43.3818 191.385 43.3606L201.016 30.1646L191.916 17.6698L192.044 17.6273Z" fill="white"/>
<path d="M80.406 53.1138L79.7257 53.6238C79.3643 53.1351 78.9178 52.7738 78.3863 52.5401C77.876 52.2851 77.302 52.1576 76.6855 52.1576C76.0051 52.1576 75.3886 52.3276 74.7933 52.6463C74.2193 52.9651 73.7728 53.4113 73.4539 53.9638C73.135 54.5163 72.9862 55.1325 72.9862 55.8125C72.9862 56.8538 73.3476 57.725 74.0492 58.405C74.7508 59.1062 75.665 59.4462 76.7492 59.4462C77.9398 59.4462 78.939 58.9787 79.7469 58.0437L80.4273 58.5537C80.0021 59.085 79.4706 59.51 78.8328 59.8075C78.1949 60.105 77.4934 60.2537 76.7067 60.2537C75.2185 60.2537 74.0492 59.765 73.1775 58.7662C72.4547 57.9375 72.0933 56.9175 72.0933 55.7275C72.0933 54.4738 72.5397 53.4326 73.4114 52.5826C74.2831 51.7326 75.3673 51.3076 76.6855 51.3076C77.4721 51.3076 78.1949 51.4564 78.8328 51.7751C79.4706 52.0939 80.0021 52.5188 80.406 53.0926" fill="white"/>
<path d="M81.6606 53.7305H82.4898V54.6443C82.7449 54.283 83 54.0068 83.2764 53.8368C83.5528 53.6668 83.8292 53.5605 84.1268 53.5605C84.3607 53.5605 84.5946 53.6243 84.8497 53.773L84.4245 54.453C84.2544 54.3893 84.1056 54.3468 83.9993 54.3468C83.7229 54.3468 83.4678 54.453 83.2126 54.6868C82.9575 54.8993 82.7662 55.2605 82.6386 55.728C82.5323 56.0893 82.4898 56.8117 82.4898 57.8955V60.0204H81.6606V53.7305Z" fill="white"/>
<path d="M90.7812 57.9375L91.4615 58.2987C91.2489 58.7449 90.9725 59.0849 90.6749 59.3612C90.3772 59.6374 90.0583 59.8287 89.6756 59.9774C89.3142 60.1262 88.889 60.1899 88.4425 60.1899C87.422 60.1899 86.6142 59.8499 86.0401 59.1912C85.4661 58.5112 85.1685 57.7675 85.1685 56.9175C85.1685 56.11 85.4236 55.4088 85.9126 54.7925C86.5291 54.0063 87.3583 53.6025 88.4 53.6025C89.4418 53.6025 90.3347 54.0063 90.9725 54.8138C91.4402 55.3875 91.6528 56.11 91.6741 56.96H86.0189C86.0189 57.6825 86.274 58.2987 86.7205 58.7662C87.1669 59.2337 87.7197 59.4674 88.4 59.4674C88.7189 59.4674 89.0378 59.4037 89.3355 59.2974C89.6331 59.1912 89.8882 59.0424 90.1008 58.8512C90.3134 58.6599 90.5473 58.3625 90.7812 57.9587M90.7812 56.2587C90.6749 55.8337 90.526 55.4725 90.3134 55.2175C90.1008 54.9625 89.8244 54.75 89.4843 54.6013C89.1441 54.4525 88.7827 54.3675 88.4213 54.3675C87.8047 54.3675 87.2732 54.5588 86.8268 54.9625C86.5078 55.26 86.2527 55.685 86.0826 56.2587H90.7812Z" fill="white"/>
<path d="M99.4554 53.7298V60.0197H98.6475V58.936C98.3073 59.3397 97.9246 59.6584 97.4994 59.8709C97.0742 60.0834 96.6065 60.1897 96.1175 60.1897C95.2246 60.1897 94.4592 59.8709 93.8427 59.2122C93.2261 58.5535 92.9072 57.7885 92.9072 56.8535C92.9072 55.9185 93.2261 55.1748 93.8639 54.5373C94.5017 53.8998 95.2671 53.5811 96.16 53.5811C96.6703 53.5811 97.138 53.6873 97.5632 53.8998C97.9884 54.1123 98.3498 54.4523 98.6687 54.8985V53.7511H99.4766L99.4554 53.7298ZM96.2238 54.346C95.7774 54.346 95.3521 54.4523 94.9695 54.686C94.5868 54.8985 94.2891 55.2173 94.0553 55.621C93.8214 56.0248 93.7151 56.4498 93.7151 56.896C93.7151 57.3422 93.8214 57.7672 94.0553 58.171C94.2891 58.5747 94.5868 58.8935 94.9695 59.106C95.3521 59.3397 95.7561 59.4459 96.2026 59.4459C96.649 59.4459 97.0742 59.3397 97.4569 59.106C97.8609 58.8722 98.1585 58.5747 98.3711 58.1922C98.5837 57.8097 98.69 57.3847 98.69 56.896C98.69 56.1735 98.4561 55.5573 97.9672 55.0685C97.4782 54.5798 96.9041 54.3248 96.2026 54.3248" fill="white"/>
<path d="M101.985 51.4141H102.793V53.7303H104.069V54.4315H102.793V60.0202H101.985V54.4315H100.88V53.7303H101.985V51.4141Z" fill="white"/>
<path d="M105.578 51.1592C105.769 51.1592 105.918 51.2229 106.046 51.3504C106.173 51.4779 106.237 51.6479 106.237 51.8179C106.237 51.9879 106.173 52.1579 106.046 52.2854C105.918 52.4129 105.769 52.4767 105.578 52.4767C105.387 52.4767 105.238 52.4129 105.11 52.2854C104.983 52.1579 104.919 52.0092 104.919 51.8179C104.919 51.6267 104.983 51.4779 105.11 51.3504C105.238 51.2229 105.408 51.1592 105.578 51.1592ZM105.174 53.7516H105.982V60.0415H105.174V53.7516Z" fill="white"/>
<path d="M107.066 53.7305H107.917L110.043 58.3204L112.126 53.7305H112.998L110.107 60.0204H109.958L107.066 53.7305Z" fill="white"/>
<path d="M119.525 57.9375L120.205 58.2987C119.993 58.7449 119.716 59.0849 119.418 59.3612C119.121 59.6374 118.802 59.8287 118.419 59.9774C118.058 60.1262 117.633 60.1899 117.186 60.1899C116.166 60.1899 115.358 59.8499 114.784 59.1912C114.21 58.5112 113.912 57.7675 113.912 56.9175C113.912 56.11 114.167 55.4088 114.656 54.7925C115.273 54.0063 116.102 53.6025 117.144 53.6025C118.185 53.6025 119.078 54.0063 119.716 54.8138C120.184 55.3875 120.396 56.11 120.418 56.96H114.763C114.763 57.6825 115.018 58.2987 115.464 58.7662C115.911 59.2337 116.463 59.4674 117.144 59.4674C117.463 59.4674 117.781 59.4037 118.079 59.2974C118.377 59.1912 118.632 59.0424 118.844 58.8512C119.057 58.6599 119.291 58.3625 119.525 57.9587M119.525 56.2587C119.419 55.8337 119.27 55.4725 119.057 55.2175C118.844 54.9625 118.568 54.75 118.228 54.6013C117.888 54.4525 117.526 54.3675 117.165 54.3675C116.548 54.3675 116.017 54.5588 115.57 54.9625C115.252 55.26 114.996 55.685 114.826 56.2587H119.525Z" fill="white"/>
<path d="M124.457 58.4472L125.18 58.0222C125.69 58.9572 126.286 59.4247 126.945 59.4247C127.221 59.4247 127.498 59.3609 127.753 59.2334C128.008 59.1059 128.199 58.9147 128.327 58.7022C128.454 58.4897 128.518 58.2347 128.518 58.001C128.518 57.7247 128.412 57.4272 128.22 57.1722C127.965 56.7897 127.476 56.3435 126.753 55.8123C126.052 55.281 125.605 54.8985 125.435 54.6435C125.138 54.2398 124.989 53.8148 124.989 53.3473C124.989 52.9861 125.074 52.6461 125.244 52.3486C125.414 52.0511 125.669 51.7961 125.988 51.6261C126.307 51.4561 126.647 51.3711 127.03 51.3711C127.434 51.3711 127.795 51.4773 128.157 51.6686C128.497 51.8598 128.879 52.2211 129.262 52.7736L128.561 53.3048C128.242 52.8798 127.965 52.6036 127.753 52.4761C127.519 52.3486 127.285 52.2848 127.009 52.2848C126.668 52.2848 126.392 52.3911 126.158 52.6036C125.946 52.8161 125.839 53.0711 125.839 53.3686C125.839 53.5598 125.882 53.7298 125.967 53.8998C126.052 54.0698 126.179 54.261 126.392 54.4735C126.498 54.5798 126.86 54.856 127.498 55.3235C128.242 55.876 128.731 56.3435 129.007 56.7685C129.283 57.1935 129.411 57.6185 129.411 58.0435C129.411 58.6597 129.177 59.1909 128.709 59.6584C128.242 60.1047 127.668 60.3384 127.009 60.3384C126.498 60.3384 126.031 60.2109 125.605 59.9347C125.18 59.6584 124.797 59.1909 124.436 58.5535" fill="white"/>
<path d="M134.067 53.5811C135.045 53.5811 135.832 53.9423 136.469 54.6435C137.043 55.281 137.341 56.046 137.341 56.9172C137.341 57.7885 137.043 58.5535 136.427 59.2122C135.81 59.8709 135.024 60.1897 134.067 60.1897C133.11 60.1897 132.302 59.8709 131.707 59.2122C131.091 58.5535 130.793 57.7885 130.793 56.9172C130.793 56.046 131.069 55.3023 131.665 54.6435C132.302 53.9423 133.11 53.5811 134.088 53.5811M134.088 54.3673C133.408 54.3673 132.834 54.6223 132.345 55.111C131.856 55.5998 131.622 56.216 131.622 56.9172C131.622 57.3635 131.728 57.7885 131.962 58.1922C132.175 58.596 132.473 58.8935 132.855 59.106C133.238 59.3184 133.642 59.4247 134.088 59.4247C134.535 59.4247 134.939 59.3184 135.321 59.106C135.704 58.8935 136.002 58.596 136.214 58.1922C136.427 57.8097 136.533 57.3847 136.533 56.9172C136.533 56.216 136.299 55.621 135.81 55.111C135.321 54.6223 134.747 54.3673 134.088 54.3673Z" fill="white"/>
<path d="M139.531 51.3076H138.723V60.02H139.531V51.3076Z" fill="white"/>
<path d="M141.125 53.7305H141.933V56.6629C141.933 57.3854 141.976 57.8741 142.061 58.1504C142.167 58.5329 142.401 58.8516 142.72 59.0641C143.039 59.2766 143.443 59.4041 143.889 59.4041C144.336 59.4041 144.718 59.2979 145.037 59.0854C145.356 58.8729 145.569 58.5754 145.696 58.2354C145.781 57.9804 145.824 57.4704 145.824 56.6842V53.7517H146.653V56.8329C146.653 57.7041 146.547 58.3629 146.356 58.7879C146.143 59.2341 145.845 59.5741 145.441 59.8291C145.037 60.0841 144.527 60.2116 143.911 60.2116C143.294 60.2116 142.784 60.0841 142.38 59.8291C141.976 59.5741 141.657 59.2341 141.466 58.7879C141.253 58.3416 141.168 57.6616 141.168 56.7692V53.7305H141.125Z" fill="white"/>
<path d="M149.119 51.4141H149.949V53.7303H151.224V54.4315H149.949V60.0202H149.119V54.4315H148.035V53.7303H149.119V51.4141Z" fill="white"/>
<path d="M152.712 51.1592C152.904 51.1592 153.052 51.2229 153.18 51.3504C153.308 51.4779 153.371 51.6479 153.371 51.8179C153.371 51.9879 153.308 52.1579 153.18 52.2854C153.052 52.4129 152.882 52.4767 152.712 52.4767C152.542 52.4767 152.372 52.4129 152.245 52.2854C152.117 52.1579 152.053 52.0092 152.053 51.8179C152.053 51.6267 152.117 51.4779 152.245 51.3504C152.372 51.2229 152.542 51.1592 152.712 51.1592ZM152.308 53.7516H153.116V60.0415H152.308V53.7516Z" fill="white"/>
<path d="M157.794 53.5811C158.772 53.5811 159.558 53.9423 160.196 54.6435C160.77 55.281 161.068 56.046 161.068 56.9172C161.068 57.7885 160.77 58.5535 160.153 59.2122C159.537 59.8709 158.75 60.1897 157.794 60.1897C156.837 60.1897 156.029 59.8709 155.434 59.2122C154.817 58.5535 154.52 57.7885 154.52 56.9172C154.52 56.046 154.817 55.3023 155.391 54.6435C156.029 53.9423 156.837 53.5811 157.815 53.5811M157.815 54.3673C157.135 54.3673 156.561 54.6223 156.072 55.111C155.583 55.5998 155.349 56.216 155.349 56.9172C155.349 57.3635 155.455 57.7885 155.689 58.1922C155.901 58.596 156.199 58.8935 156.582 59.106C156.964 59.3184 157.368 59.4247 157.815 59.4247C158.261 59.4247 158.665 59.3184 159.048 59.106C159.431 58.8935 159.728 58.596 159.941 58.1922C160.153 57.8097 160.26 57.3847 160.26 56.9172C160.26 56.216 160.026 55.621 159.537 55.111C159.048 54.6223 158.474 54.3673 157.815 54.3673Z" fill="white"/>
<path d="M162.556 53.7305H163.364V54.8568C163.682 54.4318 164.044 54.113 164.427 53.8793C164.831 53.6668 165.256 53.5605 165.723 53.5605C166.191 53.5605 166.616 53.688 166.978 53.9218C167.339 54.1555 167.616 54.4743 167.786 54.878C167.956 55.2818 168.041 55.9193 168.041 56.7692V59.9992H167.233V57.003C167.233 56.2805 167.212 55.7918 167.148 55.558C167.063 55.133 166.871 54.8355 166.616 54.623C166.361 54.4105 166 54.3043 165.575 54.3043C165.086 54.3043 164.639 54.4743 164.256 54.793C163.874 55.1118 163.619 55.5155 163.491 56.0043C163.406 56.323 163.385 56.8967 163.385 57.7255V60.0417H162.577V53.7518L162.556 53.7305Z" fill="white"/>
<path d="M172.952 54.4318L172.42 54.963C171.995 54.538 171.57 54.3255 171.145 54.3255C170.89 54.3255 170.656 54.4105 170.464 54.5805C170.273 54.7505 170.188 54.963 170.188 55.1968C170.188 55.4093 170.273 55.6005 170.422 55.7918C170.571 55.983 170.911 56.1955 171.4 56.4505C171.995 56.7692 172.42 57.0667 172.633 57.343C172.845 57.6405 172.952 57.9592 172.952 58.3417C172.952 58.8517 172.76 59.2979 172.399 59.6592C172.038 60.0204 171.591 60.1904 171.038 60.1904C170.677 60.1904 170.337 60.1054 169.997 59.9567C169.656 59.8079 169.401 59.5742 169.167 59.2979L169.678 58.7242C170.082 59.1917 170.528 59.4254 170.996 59.4254C171.315 59.4254 171.591 59.3192 171.825 59.1067C172.059 58.8942 172.165 58.6605 172.165 58.363C172.165 58.1292 172.08 57.9167 171.931 57.7467C171.782 57.5767 171.442 57.343 170.911 57.0667C170.337 56.7692 169.954 56.493 169.741 56.1955C169.529 55.9193 169.444 55.5793 169.444 55.218C169.444 54.7293 169.614 54.3468 169.933 54.028C170.252 53.7093 170.677 53.5605 171.166 53.5605C171.74 53.5605 172.335 53.8368 172.909 54.4105" fill="white"/>
<path d="M177.799 51.5205H179.5C180.478 51.5205 181.116 51.563 181.477 51.648C181.966 51.7755 182.37 52.0092 182.668 52.3917C182.966 52.753 183.136 53.2417 183.136 53.7942C183.136 54.3467 182.987 54.8354 182.689 55.1967C182.392 55.5579 181.966 55.8129 181.435 55.9404C181.052 56.0254 180.329 56.0679 179.266 56.0679H178.671V60.0203H177.821V51.5205H177.799ZM178.65 52.3492V55.2392H180.095C180.669 55.2392 181.095 55.1967 181.371 55.0904C181.647 54.9842 181.86 54.8142 182.009 54.5805C182.158 54.3467 182.243 54.0705 182.243 53.7942C182.243 53.518 182.158 53.2417 182.009 53.008C181.86 52.7742 181.647 52.6042 181.392 52.498C181.137 52.3917 180.733 52.3492 180.159 52.3492H178.65Z" fill="white"/>
<path d="M184.071 53.7305H184.942L187.047 58.3204L189.131 53.7305H190.002L187.111 60.0204H186.962L184.071 53.7305Z" fill="white"/>
<path d="M191.937 51.4141H192.745V53.7303H194.042V54.4315H192.745V60.0202H191.937V54.4315H190.832V53.7303H191.937V51.4141Z" fill="white"/>
<path d="M196.147 58.7666C196.338 58.7666 196.508 58.8304 196.657 58.9791C196.784 59.1066 196.87 59.2766 196.87 59.4891C196.87 59.7016 196.806 59.8503 196.657 59.9991C196.508 60.1478 196.338 60.2116 196.147 60.2116C195.955 60.2116 195.785 60.1478 195.636 59.9991C195.509 59.8503 195.424 59.6803 195.424 59.4891C195.424 59.2978 195.488 59.1278 195.636 58.9791C195.785 58.8304 195.934 58.7666 196.147 58.7666Z" fill="white"/>
<path d="M201.93 51.5205H202.78V59.2129H206.054V60.0203H201.93V51.5205Z" fill="white"/>
<path d="M207.988 51.4141H208.796V53.7303H210.072V54.4315H208.796V60.0202H207.988V54.4315H206.883V53.7303H207.988V51.4141Z" fill="white"/>
<path d="M217.577 51.3076V60.02H216.77V58.9362C216.429 59.34 216.047 59.6587 215.621 59.8712C215.196 60.0837 214.729 60.19 214.24 60.19C213.347 60.19 212.581 59.8712 211.965 59.2125C211.327 58.575 211.029 57.7887 211.029 56.8538C211.029 55.9188 211.348 55.175 211.986 54.5376C212.624 53.9001 213.389 53.5813 214.282 53.5813C214.792 53.5813 215.26 53.6876 215.685 53.9001C216.11 54.1126 216.472 54.4526 216.791 54.8988V51.3076H217.599H217.577ZM214.346 54.3463C213.899 54.3463 213.474 54.4526 213.092 54.6863C212.709 54.8988 212.411 55.2175 212.177 55.6213C211.943 56.025 211.837 56.45 211.837 56.8963C211.837 57.3425 211.943 57.7675 212.177 58.1712C212.411 58.575 212.709 58.8937 213.092 59.1062C213.474 59.34 213.878 59.4462 214.325 59.4462C214.771 59.4462 215.196 59.34 215.579 59.1062C215.983 58.8725 216.281 58.575 216.493 58.1925C216.706 57.81 216.812 57.385 216.812 56.8963C216.812 56.1738 216.578 55.5575 216.089 55.0688C215.6 54.5801 215.026 54.3251 214.325 54.3251" fill="white"/>
<path d="M220.298 58.7666C220.489 58.7666 220.659 58.8304 220.808 58.9791C220.936 59.1066 221.021 59.2766 221.021 59.4891C221.021 59.7016 220.957 59.8503 220.808 59.9991C220.659 60.1478 220.489 60.2116 220.298 60.2116C220.107 60.2116 219.937 60.1478 219.788 59.9991C219.66 59.8503 219.575 59.6803 219.575 59.4891C219.575 59.2978 219.639 59.1278 219.788 58.9791C219.937 58.8304 220.085 58.7666 220.298 58.7666Z" fill="white"/>
</g>
<defs>
<clipPath id="clip0_53_817">
<rect width="221" height="67" fill="white" transform="translate(0 0.5)"/>
</clipPath>
</defs>
</svg>
