<svg width="221" height="67" viewBox="0 0 221 67" fill="none" xmlns="http://www.w3.org/2000/svg">
<g clip-path="url(#clip0_23_656)">
<path d="M37.7156 43.179C48.4095 35.5079 50.8757 20.6331 43.2008 9.94459C38.4172 3.27222 30.8061 -0.191469 23.1524 -0.000222884C18.5602 0.127275 13.9467 1.57225 9.92852 4.44094C-0.744113 12.1333 -3.2103 27.008 4.46464 37.6966C10.6726 46.3452 21.6216 49.6176 31.2313 46.4727C33.4848 45.7289 35.6746 44.6452 37.7156 43.179Z" fill="#F8971D"/>
<path d="M51.5986 62.5376C62.2925 54.8665 64.7587 39.9918 57.0838 29.3032C52.3002 22.6308 44.6891 19.1671 37.0354 19.3796C32.4432 19.5071 27.8297 20.9521 23.8115 23.8208C13.1176 31.4919 10.6514 46.3666 18.3264 57.0552C24.5344 65.725 35.4834 68.9762 45.093 65.8313C47.3466 65.0875 49.5364 64.0038 51.5774 62.5376" fill="#CB2027"/>
<path d="M10.7364 56.1202C13.075 54.4415 13.6278 51.169 11.9483 48.8316C10.9065 47.3654 9.22694 46.6004 7.54739 46.6429C6.54815 46.6641 5.52766 46.9829 4.656 47.6204C2.31737 49.2991 1.76461 52.5715 3.44416 54.909C4.80482 56.8002 7.20722 57.5227 9.31198 56.8427C9.80097 56.6727 10.29 56.4389 10.7364 56.1202Z" fill="#CB2027"/>
<path d="M54.171 20.3359C55.3403 19.5071 55.5954 17.8922 54.7663 16.7234C54.2561 16.001 53.4269 15.6185 52.5978 15.6397C52.1088 15.6397 51.5985 15.8097 51.1733 16.1285C50.004 16.9572 49.7489 18.5722 50.578 19.7409C51.2584 20.6759 52.4489 21.0371 53.4907 20.6971C53.7458 20.6121 53.9797 20.5059 54.1923 20.3359" fill="#F8971D"/>
<path d="M92.4821 13.961C92.6734 13.451 92.9285 13.0898 93.2899 12.8773C93.6301 12.6648 94.1191 12.5585 94.7782 12.5585C95.4797 12.5585 95.9687 12.7285 96.2664 13.0685C96.5428 13.4085 96.6916 14.1097 96.6916 15.1722C96.6916 17.0422 96.6916 18.7634 96.7554 20.3784C96.7979 21.9933 96.8191 22.6733 96.8191 22.4821C96.8191 23.3746 96.6703 23.9695 96.3727 24.2883C96.075 24.607 95.5223 24.7558 94.7569 24.7558C93.5025 24.7558 92.6947 23.8633 92.312 22.0783C92.1844 21.5471 92.0781 21.1434 91.9931 20.8459C91.6316 19.4221 90.76 18.2534 89.3993 17.3609C88.0387 16.4684 86.4229 16.0009 84.5732 16.0009C81.2141 16.0009 78.5141 17.2334 76.4731 19.6984C74.4321 22.1633 73.4116 25.457 73.4116 29.6007C73.4116 33.7444 74.4534 37.0381 76.5156 39.503C78.5779 41.968 81.2992 43.2004 84.6796 43.2004C85.7851 43.2004 86.9119 43.0517 88.0387 42.733C89.1867 42.4142 90.2923 41.9467 91.3978 41.3305C91.908 41.0755 92.6096 40.608 93.5025 39.9705C94.3955 39.333 95.0333 39.0143 95.416 39.0143C96.0113 39.0143 96.5002 39.2055 96.9042 39.6093C97.3081 39.9917 97.5207 40.4805 97.5207 41.0542C97.5207 41.628 97.2869 42.1805 96.8404 42.6904C96.3939 43.2217 95.5648 43.8592 94.353 44.6242C92.7584 45.6654 91.1427 46.4304 89.5269 46.9404C87.9111 47.4291 86.2103 47.6841 84.4244 47.6841C79.7259 47.6841 75.8566 46.0266 72.7951 42.7117C69.7336 39.3968 68.2029 35.1468 68.2029 29.9832C68.2029 24.8195 69.7549 20.6334 72.8589 17.2334C75.9629 13.8547 79.8535 12.1548 84.552 12.1548C85.8063 12.1548 87.082 12.3035 88.3788 12.601C89.6757 12.8985 91.0576 13.366 92.5033 13.961" fill="black"/>
<path d="M117.314 42.7967H119.249C120.354 42.7967 121.141 42.9455 121.587 43.2642C122.055 43.5617 122.267 44.0717 122.267 44.7729C122.267 45.5379 122.076 46.0691 121.672 46.3666C121.268 46.6641 120.524 46.8341 119.419 46.8341H109.83C109.192 46.8341 108.682 46.6641 108.342 46.3029C108.002 45.9416 107.832 45.4529 107.832 44.7729C107.832 44.0717 108.023 43.5617 108.406 43.2642C108.788 42.9667 109.405 42.7967 110.298 42.7967H112.892V16.8509H111.233C109.809 16.8509 108.895 16.7234 108.47 16.4472C108.044 16.1922 107.832 15.6822 107.832 14.9385C107.832 14.301 108.002 13.8122 108.342 13.4935C108.682 13.1748 109.171 13.0048 109.83 13.0048H121.864C124.776 13.0048 126.945 13.1535 128.369 13.4085C129.794 13.6847 131.027 14.1522 132.005 14.811C133.28 15.661 134.279 16.7872 135.024 18.2109C135.768 19.6346 136.129 21.1221 136.129 22.7371C136.129 24.9258 135.449 26.7958 134.109 28.3682C132.77 29.9407 130.899 31.0244 128.518 31.6407C129.007 31.9169 129.453 32.2569 129.836 32.6394C130.219 33.0219 130.601 33.4681 130.963 33.9994L136.703 42.7755H137.639C138.702 42.7755 139.446 42.9242 139.828 43.2217C140.232 43.5192 140.424 44.0292 140.424 44.7517C140.424 45.4104 140.254 45.9204 139.935 46.2816C139.595 46.6429 139.106 46.8129 138.468 46.8129H135.236C134.301 46.8129 133.387 46.1329 132.494 44.7517C132.387 44.6454 132.302 44.5392 132.239 44.4754L126.753 36.1881C125.627 34.4881 124.712 33.4044 123.968 32.9156C123.245 32.4269 122.267 32.1719 121.077 32.1719H117.293V42.7967H117.314ZM117.314 16.8509V28.3682H123.224C125.882 28.3682 127.88 27.8795 129.22 26.9233C130.559 25.967 131.239 24.5433 131.239 22.6308C131.239 20.7184 130.58 19.2734 129.262 18.2959C127.944 17.3184 125.988 16.8509 123.394 16.8509H117.314Z" fill="black"/>
<path d="M151.543 17.1272H151.075C149.927 17.1272 149.162 16.9784 148.715 16.6809C148.29 16.3834 148.077 15.8522 148.077 15.0872C148.077 14.386 148.247 13.876 148.609 13.536C148.97 13.196 149.502 13.026 150.225 13.026H157.347C158.878 13.026 159.856 13.1748 160.281 13.4723C160.706 13.7697 160.897 14.301 160.897 15.0872C160.897 15.8735 160.642 16.3834 160.153 16.6809C159.664 16.9784 158.729 17.1272 157.326 17.1272H156.092V32.7456C156.092 34.8494 156.199 36.3793 156.39 37.3568C156.581 38.313 156.922 39.1843 157.368 39.9918C158.027 41.1392 158.963 42.053 160.153 42.6905C161.344 43.3279 162.662 43.6679 164.108 43.6679C166.829 43.6679 168.806 42.8392 170.06 41.2242C171.294 39.588 171.931 36.9531 171.931 33.2981V17.1272H170.422C168.934 17.1272 167.934 16.9784 167.445 16.6809C166.935 16.3834 166.68 15.8522 166.68 15.066C166.68 14.2797 166.871 13.7485 167.275 13.451C167.679 13.1535 168.508 13.0048 169.763 13.0048H177.438C178.118 13.0048 178.65 13.1748 178.99 13.5148C179.351 13.8547 179.521 14.3647 179.521 15.0447C179.521 15.8097 179.309 16.3409 178.905 16.6384C178.48 16.9359 177.714 17.0847 176.63 17.0847H176.226V33.8719C176.226 38.483 175.184 41.9467 173.122 44.2629C171.06 46.5791 167.956 47.7266 163.81 47.7266C160.068 47.7266 157.07 46.5791 154.838 44.2629C152.606 41.9467 151.479 38.8443 151.479 34.9344V17.0847L151.543 17.1272Z" fill="black"/>
<path d="M192.044 17.1272C191.236 17.0847 190.64 16.9147 190.279 16.5959C189.917 16.2772 189.747 15.7672 189.747 15.066C189.747 14.4072 189.917 13.8972 190.236 13.536C190.577 13.1748 191.066 13.0048 191.703 13.0048H198.889C199.591 13.0048 200.122 13.1748 200.505 13.536C200.866 13.8972 201.058 14.386 201.058 15.066C201.058 15.746 200.824 16.2135 200.356 16.5747C199.889 16.9359 199.229 17.1059 198.379 17.1059H197.55L204.013 26.2645L210.753 17.1059H209.86C208.945 17.1059 208.244 16.9147 207.712 16.5534C207.202 16.1922 206.947 15.6822 206.947 15.066C206.947 14.4497 207.138 13.9397 207.542 13.5785C207.946 13.2173 208.478 13.026 209.158 13.026H216.344C216.982 13.026 217.471 13.196 217.811 13.5573C218.151 13.9185 218.321 14.4072 218.321 15.0872C218.321 15.8097 218.13 16.3409 217.726 16.6597C217.343 16.9784 216.705 17.1484 215.812 17.1484L206.713 29.4732L216.642 42.8392C217.471 42.903 218.087 43.0942 218.491 43.4129C218.895 43.7317 219.087 44.1992 219.087 44.8154C219.087 45.4317 218.895 45.9416 218.512 46.3241C218.13 46.6854 217.62 46.8766 216.982 46.8766H209.328C208.329 46.8766 207.67 46.7279 207.33 46.4304C206.989 46.1329 206.819 45.6017 206.819 44.8367C206.819 44.0717 207.032 43.5829 207.436 43.3067C207.861 43.0305 208.669 42.8817 209.881 42.8817H211.05L203.737 32.8094L196.551 42.8817H197.826C199.144 42.8817 200.016 43.0305 200.484 43.3067C200.952 43.5829 201.164 44.1142 201.164 44.8367C201.164 45.5592 200.973 46.1329 200.611 46.4304C200.25 46.7279 199.57 46.8766 198.592 46.8766H191.002C190.343 46.8766 189.832 46.6854 189.45 46.3241C189.067 45.9416 188.876 45.4529 188.876 44.8154C188.876 44.1779 189.067 43.6892 189.471 43.3704C189.875 43.0517 190.513 42.8817 191.384 42.8605L201.015 29.6645L191.916 17.1697L192.044 17.1272Z" fill="black"/>
<path d="M80.4063 52.614L79.7259 53.124C79.3645 52.6353 78.918 52.274 78.3865 52.0403C77.8763 51.7853 77.3023 51.6578 76.6857 51.6578C76.0054 51.6578 75.3888 51.8278 74.7936 52.1465C74.2195 52.4653 73.7731 52.9115 73.4542 53.464C73.1353 54.0165 72.9864 54.6327 72.9864 55.3127C72.9864 56.3539 73.3479 57.2252 74.0495 57.9052C74.751 58.6064 75.6652 58.9464 76.7495 58.9464C77.9401 58.9464 78.9393 58.4789 79.7472 57.5439L80.4275 58.0539C80.0023 58.5852 79.4708 59.0101 78.833 59.3076C78.1952 59.6051 77.4936 59.7539 76.707 59.7539C75.2188 59.7539 74.0494 59.2651 73.1778 58.2664C72.4549 57.4377 72.0935 56.4177 72.0935 55.2277C72.0935 53.974 72.54 52.9328 73.4116 52.0828C74.2833 51.2328 75.3676 50.8078 76.6857 50.8078C77.4723 50.8078 78.1952 50.9565 78.833 51.2753C79.4708 51.594 80.0023 52.019 80.4063 52.5928" fill="black"/>
<path d="M81.6604 53.2303H82.4895V54.144C82.7447 53.7827 82.9998 53.5065 83.2762 53.3365C83.5526 53.1665 83.8289 53.0603 84.1266 53.0603C84.3604 53.0603 84.5943 53.124 84.8494 53.2728L84.4242 53.9527C84.2541 53.889 84.1053 53.8465 83.999 53.8465C83.7226 53.8465 83.4675 53.9527 83.2124 54.1865C82.9573 54.399 82.7659 54.7602 82.6384 55.2277C82.5321 55.589 82.4895 56.3114 82.4895 57.3952V59.5201H81.6604V53.2303Z" fill="black"/>
<path d="M90.7812 57.4377L91.4615 57.7989C91.2489 58.2452 90.9725 58.5852 90.6749 58.8614C90.3772 59.1376 90.0583 59.3289 89.6756 59.4776C89.3142 59.6264 88.889 59.6901 88.4425 59.6901C87.422 59.6901 86.6142 59.3501 86.0401 58.6914C85.4661 58.0114 85.1685 57.2677 85.1685 56.4177C85.1685 55.6102 85.4236 54.909 85.9126 54.2927C86.5291 53.5065 87.3583 53.1028 88.4 53.1028C89.4418 53.1028 90.3347 53.5065 90.9725 54.314C91.4402 54.8877 91.6528 55.6102 91.6741 56.4602H86.0189C86.0189 57.1827 86.274 57.7989 86.7205 58.2664C87.1669 58.7339 87.7197 58.9676 88.4 58.9676C88.7189 58.9676 89.0378 58.9039 89.3355 58.7976C89.6331 58.6914 89.8882 58.5426 90.1008 58.3514C90.3134 58.1602 90.5473 57.8627 90.7812 57.4589M90.7812 55.759C90.6749 55.334 90.526 54.9727 90.3134 54.7177C90.1008 54.4627 89.8244 54.2502 89.4843 54.1015C89.1441 53.9527 88.7827 53.8677 88.4213 53.8677C87.8047 53.8677 87.2732 54.059 86.8268 54.4627C86.5078 54.7602 86.2527 55.1852 86.0826 55.759H90.7812Z" fill="black"/>
<path d="M99.4554 53.2303V59.5201H98.6475V58.4364C98.3073 58.8402 97.9246 59.1589 97.4994 59.3714C97.0742 59.5839 96.6065 59.6901 96.1175 59.6901C95.2246 59.6901 94.4592 59.3714 93.8427 58.7127C93.2261 58.0539 92.9072 57.2889 92.9072 56.354C92.9072 55.419 93.2261 54.6752 93.8639 54.0377C94.5017 53.4003 95.2671 53.0815 96.16 53.0815C96.6703 53.0815 97.138 53.1878 97.5632 53.4003C97.9884 53.6128 98.3498 53.9527 98.6687 54.399V53.2515H99.4766L99.4554 53.2303ZM96.2238 53.8465C95.7774 53.8465 95.3521 53.9527 94.9695 54.1865C94.5868 54.399 94.2891 54.7177 94.0553 55.1215C93.8214 55.5252 93.7151 55.9502 93.7151 56.3965C93.7151 56.8427 93.8214 57.2677 94.0553 57.6714C94.2891 58.0752 94.5868 58.3939 94.9695 58.6064C95.3521 58.8402 95.7561 58.9464 96.2026 58.9464C96.649 58.9464 97.0742 58.8402 97.4569 58.6064C97.8609 58.3727 98.1585 58.0752 98.3711 57.6927C98.5837 57.3102 98.69 56.8852 98.69 56.3965C98.69 55.674 98.4561 55.0577 97.9672 54.569C97.4782 54.0802 96.9041 53.8252 96.2026 53.8252" fill="black"/>
<path d="M101.985 50.914H102.793V53.2303H104.069V53.9315H102.793V59.5201H101.985V53.9315H100.88V53.2303H101.985V50.914Z" fill="black"/>
<path d="M105.578 50.6591C105.77 50.6591 105.918 50.7228 106.046 50.8503C106.174 50.9778 106.237 51.1478 106.237 51.3178C106.237 51.4878 106.174 51.6578 106.046 51.7853C105.918 51.9128 105.77 51.9765 105.578 51.9765C105.387 51.9765 105.238 51.9128 105.111 51.7853C104.983 51.6578 104.919 51.509 104.919 51.3178C104.919 51.1265 104.983 50.9778 105.111 50.8503C105.238 50.7228 105.408 50.6591 105.578 50.6591ZM105.174 53.2515H105.982V59.5414H105.174V53.2515Z" fill="black"/>
<path d="M107.066 53.2303H107.917L110.043 57.8202L112.126 53.2303H112.998L110.107 59.5201H109.958L107.066 53.2303Z" fill="black"/>
<path d="M119.525 57.4377L120.205 57.7989C119.993 58.2452 119.716 58.5852 119.419 58.8614C119.121 59.1376 118.802 59.3289 118.42 59.4776C118.058 59.6264 117.633 59.6901 117.186 59.6901C116.166 59.6901 115.358 59.3501 114.784 58.6914C114.21 58.0114 113.912 57.2677 113.912 56.4177C113.912 55.6102 114.167 54.909 114.656 54.2927C115.273 53.5065 116.102 53.1028 117.144 53.1028C118.186 53.1028 119.079 53.5065 119.716 54.314C120.184 54.8877 120.397 55.6102 120.418 56.4602H114.763C114.763 57.1827 115.018 57.7989 115.464 58.2664C115.911 58.7339 116.464 58.9676 117.144 58.9676C117.463 58.9676 117.782 58.9039 118.079 58.7976C118.377 58.6914 118.632 58.5426 118.845 58.3514C119.057 58.1602 119.291 57.8627 119.525 57.4589M119.525 55.759C119.419 55.334 119.27 54.9727 119.057 54.7177C118.845 54.4627 118.568 54.2502 118.228 54.1015C117.888 53.9527 117.527 53.8677 117.165 53.8677C116.549 53.8677 116.017 54.059 115.571 54.4627C115.252 54.7602 114.997 55.1852 114.827 55.759H119.525Z" fill="black"/>
<path d="M124.457 57.9477L125.18 57.5227C125.69 58.4577 126.286 58.9251 126.945 58.9251C127.221 58.9251 127.498 58.8614 127.753 58.7339C128.008 58.6064 128.199 58.4152 128.327 58.2027C128.454 57.9902 128.518 57.7352 128.518 57.5014C128.518 57.2252 128.412 56.9277 128.22 56.6727C127.965 56.2902 127.476 55.844 126.753 55.3127C126.052 54.7815 125.605 54.399 125.435 54.144C125.138 53.7402 124.989 53.3153 124.989 52.8478C124.989 52.4865 125.074 52.1465 125.244 51.849C125.414 51.5515 125.669 51.2965 125.988 51.1265C126.307 50.9565 126.647 50.8716 127.03 50.8716C127.434 50.8716 127.795 50.9778 128.157 51.169C128.497 51.3603 128.879 51.7215 129.262 52.274L128.561 52.8053C128.242 52.3803 127.965 52.104 127.753 51.9765C127.519 51.849 127.285 51.7853 127.009 51.7853C126.668 51.7853 126.392 51.8915 126.158 52.104C125.946 52.3165 125.839 52.5715 125.839 52.869C125.839 53.0603 125.882 53.2303 125.967 53.4003C126.052 53.5702 126.179 53.7615 126.392 53.974C126.498 54.0802 126.86 54.3565 127.498 54.824C128.242 55.3765 128.731 55.844 129.007 56.2689C129.283 56.6939 129.411 57.1189 129.411 57.5439C129.411 58.1602 129.177 58.6914 128.709 59.1589C128.242 59.6051 127.668 59.8389 127.009 59.8389C126.498 59.8389 126.031 59.7114 125.605 59.4351C125.18 59.1589 124.797 58.6914 124.436 58.0539" fill="black"/>
<path d="M134.067 53.0815C135.045 53.0815 135.832 53.4428 136.469 54.144C137.043 54.7815 137.341 55.5465 137.341 56.4177C137.341 57.2889 137.043 58.0539 136.427 58.7127C135.81 59.3714 135.024 59.6901 134.067 59.6901C133.11 59.6901 132.302 59.3714 131.707 58.7127C131.091 58.0539 130.793 57.2889 130.793 56.4177C130.793 55.5465 131.069 54.8027 131.665 54.144C132.302 53.4428 133.11 53.0815 134.088 53.0815M134.088 53.8677C133.408 53.8677 132.834 54.1227 132.345 54.6115C131.856 55.1002 131.622 55.7165 131.622 56.4177C131.622 56.8639 131.728 57.2889 131.962 57.6927C132.175 58.0964 132.473 58.3939 132.855 58.6064C133.238 58.8189 133.642 58.9252 134.088 58.9252C134.535 58.9252 134.939 58.8189 135.321 58.6064C135.704 58.3939 136.002 58.0964 136.214 57.6927C136.427 57.3102 136.533 56.8852 136.533 56.4177C136.533 55.7165 136.299 55.1215 135.81 54.6115C135.321 54.1227 134.747 53.8677 134.088 53.8677Z" fill="black"/>
<path d="M139.531 50.8078H138.723V59.5201H139.531V50.8078Z" fill="black"/>
<path d="M141.125 53.2303H141.933V56.1627C141.933 56.8852 141.976 57.3739 142.061 57.6502C142.167 58.0327 142.401 58.3514 142.72 58.5639C143.039 58.7764 143.443 58.9039 143.889 58.9039C144.336 58.9039 144.718 58.7977 145.037 58.5852C145.356 58.3727 145.569 58.0752 145.696 57.7352C145.781 57.4802 145.824 56.9702 145.824 56.184V53.2515H146.653V56.3327C146.653 57.2039 146.547 57.8627 146.355 58.2877C146.143 58.7339 145.845 59.0739 145.441 59.3289C145.037 59.5839 144.527 59.7114 143.91 59.7114C143.294 59.7114 142.784 59.5839 142.38 59.3289C141.976 59.0739 141.657 58.7339 141.465 58.2877C141.253 57.8414 141.168 57.1614 141.168 56.2689V53.2303H141.125Z" fill="black"/>
<path d="M149.119 50.914H149.948V53.2303H151.224V53.9315H149.948V59.5201H149.119V53.9315H148.035V53.2303H149.119V50.914Z" fill="black"/>
<path d="M152.712 50.6591C152.904 50.6591 153.052 50.7228 153.18 50.8503C153.308 50.9778 153.371 51.1478 153.371 51.3178C153.371 51.4878 153.308 51.6578 153.18 51.7853C153.052 51.9128 152.882 51.9765 152.712 51.9765C152.542 51.9765 152.372 51.9128 152.245 51.7853C152.117 51.6578 152.053 51.509 152.053 51.3178C152.053 51.1265 152.117 50.9778 152.245 50.8503C152.372 50.7228 152.542 50.6591 152.712 50.6591ZM152.308 53.2515H153.116V59.5414H152.308V53.2515Z" fill="black"/>
<path d="M157.793 53.0815C158.771 53.0815 159.558 53.4428 160.196 54.144C160.77 54.7815 161.067 55.5465 161.067 56.4177C161.067 57.2889 160.77 58.0539 160.153 58.7127C159.537 59.3714 158.75 59.6901 157.793 59.6901C156.837 59.6901 156.029 59.3714 155.433 58.7127C154.817 58.0539 154.519 57.2889 154.519 56.4177C154.519 55.5465 154.817 54.8027 155.391 54.144C156.029 53.4428 156.837 53.0815 157.815 53.0815M157.815 53.8677C157.134 53.8677 156.56 54.1227 156.071 54.6115C155.582 55.1002 155.348 55.7165 155.348 56.4177C155.348 56.8639 155.455 57.2889 155.689 57.6927C155.901 58.0964 156.199 58.3939 156.582 58.6064C156.964 58.8189 157.368 58.9252 157.815 58.9252C158.261 58.9252 158.665 58.8189 159.048 58.6064C159.43 58.3939 159.728 58.0964 159.941 57.6927C160.153 57.3102 160.26 56.8852 160.26 56.4177C160.26 55.7165 160.026 55.1215 159.537 54.6115C159.048 54.1227 158.474 53.8677 157.815 53.8677Z" fill="black"/>
<path d="M162.556 53.2303H163.364V54.3565C163.682 53.9315 164.044 53.6127 164.427 53.379C164.831 53.1665 165.256 53.0603 165.723 53.0603C166.191 53.0603 166.616 53.1878 166.978 53.4215C167.339 53.6552 167.616 53.974 167.786 54.3777C167.956 54.7815 168.041 55.419 168.041 56.2689V59.4989H167.233V56.5027C167.233 55.7802 167.212 55.2915 167.148 55.0577C167.063 54.6327 166.871 54.3352 166.616 54.1227C166.361 53.9102 166 53.804 165.575 53.804C165.086 53.804 164.639 53.974 164.256 54.2927C163.874 54.6115 163.619 55.0152 163.491 55.504C163.406 55.8227 163.385 56.3964 163.385 57.2252V59.5414H162.577V53.2515L162.556 53.2303Z" fill="black"/>
<path d="M172.952 53.9315L172.42 54.4627C171.995 54.0377 171.57 53.8252 171.145 53.8252C170.89 53.8252 170.656 53.9102 170.464 54.0802C170.273 54.2502 170.188 54.4627 170.188 54.6965C170.188 54.909 170.273 55.1002 170.422 55.2915C170.571 55.4827 170.911 55.6952 171.4 55.9502C171.995 56.2689 172.42 56.5664 172.633 56.8427C172.845 57.1402 172.952 57.4589 172.952 57.8414C172.952 58.3514 172.76 58.7977 172.399 59.1589C172.038 59.5201 171.591 59.6901 171.038 59.6901C170.677 59.6901 170.337 59.6051 169.997 59.4564C169.656 59.3076 169.401 59.0739 169.167 58.7977L169.678 58.2239C170.082 58.6914 170.528 58.9251 170.996 58.9251C171.315 58.9251 171.591 58.8189 171.825 58.6064C172.059 58.3939 172.165 58.1602 172.165 57.8627C172.165 57.6289 172.08 57.4164 171.931 57.2464C171.782 57.0764 171.442 56.8427 170.911 56.5664C170.337 56.269 169.954 55.9927 169.741 55.6952C169.529 55.419 169.444 55.079 169.444 54.7177C169.444 54.229 169.614 53.8465 169.933 53.5278C170.252 53.209 170.677 53.0603 171.166 53.0603C171.74 53.0603 172.335 53.3365 172.909 53.9102" fill="black"/>
<path d="M177.799 51.0203H179.5C180.478 51.0203 181.116 51.0628 181.477 51.1478C181.966 51.2753 182.37 51.509 182.668 51.8915C182.966 52.2528 183.136 52.7415 183.136 53.294C183.136 53.8465 182.987 54.3352 182.689 54.6965C182.392 55.0577 181.966 55.3127 181.435 55.4402C181.052 55.5252 180.329 55.5677 179.266 55.5677H178.671V59.5201H177.821V51.0203H177.799ZM178.65 51.849V54.739H180.095C180.669 54.739 181.095 54.6965 181.371 54.5902C181.647 54.484 181.86 54.314 182.009 54.0802C182.158 53.8465 182.243 53.5702 182.243 53.294C182.243 53.0178 182.158 52.7415 182.009 52.5078C181.86 52.274 181.647 52.104 181.392 51.9978C181.137 51.8915 180.733 51.849 180.159 51.849H178.65Z" fill="black"/>
<path d="M184.071 53.2303H184.943L187.047 57.8202L189.131 53.2303H190.003L187.111 59.5201H186.962L184.071 53.2303Z" fill="black"/>
<path d="M191.937 50.914H192.745V53.2303H194.042V53.9315H192.745V59.5201H191.937V53.9315H190.832V53.2303H191.937V50.914Z" fill="black"/>
<path d="M196.147 58.2664C196.338 58.2664 196.508 58.3302 196.657 58.4789C196.784 58.6064 196.87 58.7764 196.87 58.9889C196.87 59.2014 196.806 59.3501 196.657 59.4989C196.508 59.6476 196.338 59.7114 196.147 59.7114C195.955 59.7114 195.785 59.6476 195.636 59.4989C195.509 59.3501 195.424 59.1802 195.424 58.9889C195.424 58.7977 195.488 58.6277 195.636 58.4789C195.785 58.3302 195.934 58.2664 196.147 58.2664Z" fill="black"/>
<path d="M201.93 51.0203H202.78V58.7126H206.054V59.5201H201.93V51.0203Z" fill="black"/>
<path d="M207.989 50.914H208.797V53.2303H210.072V53.9315H208.797V59.5201H207.989V53.9315H206.883V53.2303H207.989V50.914Z" fill="black"/>
<path d="M217.577 50.8078V59.5201H216.769V58.4364C216.429 58.8401 216.046 59.1589 215.621 59.3714C215.196 59.5839 214.728 59.6901 214.239 59.6901C213.346 59.6901 212.581 59.3714 211.964 58.7127C211.327 58.0752 211.029 57.2889 211.029 56.3539C211.029 55.419 211.348 54.6752 211.986 54.0377C212.624 53.4003 213.389 53.0815 214.282 53.0815C214.792 53.0815 215.26 53.1878 215.685 53.4003C216.11 53.6127 216.472 53.9527 216.791 54.399V50.8078H217.598H217.577ZM214.346 53.8465C213.899 53.8465 213.474 53.9527 213.091 54.1865C212.709 54.399 212.411 54.7177 212.177 55.1215C211.943 55.5252 211.837 55.9502 211.837 56.3964C211.837 56.8427 211.943 57.2677 212.177 57.6714C212.411 58.0752 212.709 58.3939 213.091 58.6064C213.474 58.8401 213.878 58.9464 214.324 58.9464C214.771 58.9464 215.196 58.8401 215.579 58.6064C215.983 58.3727 216.28 58.0752 216.493 57.6927C216.706 57.3102 216.812 56.8852 216.812 56.3964C216.812 55.674 216.578 55.0577 216.089 54.569C215.6 54.0802 215.026 53.8252 214.324 53.8252" fill="black"/>
<path d="M220.299 58.2664C220.49 58.2664 220.66 58.3302 220.809 58.4789C220.936 58.6064 221.021 58.7764 221.021 58.9889C221.021 59.2014 220.958 59.3501 220.809 59.4989C220.66 59.6476 220.49 59.7114 220.299 59.7114C220.107 59.7114 219.937 59.6476 219.788 59.4989C219.661 59.3501 219.576 59.1802 219.576 58.9889C219.576 58.7977 219.639 58.6277 219.788 58.4789C219.937 58.3302 220.086 58.2664 220.299 58.2664Z" fill="black"/>
</g>
<defs>
<clipPath id="clip0_23_656">
<rect width="221" height="67" fill="white"/>
</clipPath>
</defs>
</svg>
