<svg width="22" height="22" viewBox="0 0 22 22" fill="none" xmlns="http://www.w3.org/2000/svg">
<path fill-rule="evenodd" clip-rule="evenodd" d="M19.0007 0H3.00065C1.52998 0 0.333984 1.196 0.333984 2.66667V18.6667C0.333984 20.1373 1.52998 21.3333 3.00065 21.3333H11.0007V14H8.33398V10.6667H11.0007V8C11.0007 6.93913 11.4221 5.92172 12.1722 5.17157C12.9224 4.42143 13.9398 4 15.0007 4H17.6673V7.33333H16.334C15.598 7.33333 15.0007 7.264 15.0007 8V10.6667H18.334L17.0007 14H15.0007V21.3333H19.0007C20.4713 21.3333 21.6673 20.1373 21.6673 18.6667V2.66667C21.6673 1.196 20.4713 0 19.0007 0Z" fill="white"/>
</svg>
