<svg width="22" height="22" viewBox="0 0 22 22" fill="none" xmlns="http://www.w3.org/2000/svg">
<path d="M10.6676 1.92771C13.495 1.92771 13.8805 1.92771 15.0371 1.92771C16.0652 1.92771 16.5793 2.18474 16.9648 2.31325C17.4789 2.57028 17.8644 2.6988 18.25 3.08434C18.6355 3.46988 18.8925 3.85542 19.0211 4.36948C19.1496 4.75502 19.2781 5.26908 19.4066 6.29719C19.4066 7.45382 19.4066 7.71084 19.4066 10.6667C19.4066 13.6225 19.4066 13.8795 19.4066 15.0361C19.4066 16.0643 19.1496 16.5783 19.0211 16.9639C18.764 17.4779 18.6355 17.8635 18.25 18.249C17.8644 18.6345 17.4789 18.8916 16.9648 19.0201C16.5793 19.1486 16.0652 19.2771 15.0371 19.4056C13.8805 19.4056 13.6235 19.4056 10.6676 19.4056C7.71182 19.4056 7.45479 19.4056 6.29817 19.4056C5.27005 19.4056 4.756 19.1486 4.37046 19.0201C3.8564 18.7631 3.47086 18.6345 3.08531 18.249C2.69977 17.8635 2.44274 17.4779 2.31423 16.9639C2.18572 16.5783 2.0572 16.0643 1.92869 15.0361C1.92869 13.8795 1.92869 13.6225 1.92869 10.6667C1.92869 7.71084 1.92869 7.45382 1.92869 6.29719C1.92869 5.26908 2.18572 4.75502 2.31423 4.36948C2.57126 3.85542 2.69977 3.46988 3.08531 3.08434C3.47086 2.6988 3.8564 2.44177 4.37046 2.31325C4.756 2.18474 5.27005 2.05623 6.29817 1.92771C7.45479 1.92771 7.84034 1.92771 10.6676 1.92771ZM10.6676 0C7.71182 0 7.45479 0 6.29817 0C5.14154 0 4.37046 0.257029 3.72789 0.514057C3.08531 0.771085 2.44274 1.15663 1.80017 1.7992C1.1576 2.44177 0.900576 2.95582 0.515034 3.72691C0.258005 4.36948 0.129491 5.14056 0.000976562 6.29719C0.000976562 7.45382 0.000976562 7.83936 0.000976562 10.6667C0.000976562 13.6225 0.000976562 13.8795 0.000976562 15.0361C0.000976562 16.1928 0.258005 16.9639 0.515034 17.6064C0.772062 18.249 1.1576 18.8916 1.80017 19.5341C2.44274 20.1767 2.9568 20.4337 3.72789 20.8193C4.37046 21.0763 5.14154 21.2048 6.29817 21.3333C7.45479 21.3333 7.84034 21.3333 10.6676 21.3333C13.495 21.3333 13.8805 21.3333 15.0371 21.3333C16.1937 21.3333 16.9648 21.0763 17.6074 20.8193C18.25 20.5623 18.8925 20.1767 19.5351 19.5341C20.1777 18.8916 20.4347 18.3775 20.8203 17.6064C21.0773 16.9639 21.2058 16.1928 21.3343 15.0361C21.3343 13.8795 21.3343 13.494 21.3343 10.6667C21.3343 7.83936 21.3343 7.45382 21.3343 6.29719C21.3343 5.14056 21.0773 4.36948 20.8203 3.72691C20.5632 3.08434 20.1777 2.44177 19.5351 1.7992C18.8925 1.15663 18.3785 0.899599 17.6074 0.514057C16.9648 0.257029 16.1937 0.128514 15.0371 0C13.8805 0 13.6235 0 10.6676 0Z" fill="white"/>
<path d="M10.6676 5.14056C7.58331 5.14056 5.14154 7.58233 5.14154 10.6667C5.14154 13.751 7.58331 16.1928 10.6676 16.1928C13.752 16.1928 16.1937 13.751 16.1937 10.6667C16.1937 7.58233 13.752 5.14056 10.6676 5.14056ZM10.6676 14.2651C8.73993 14.2651 7.06925 12.7229 7.06925 10.6667C7.06925 8.73896 8.61142 7.06827 10.6676 7.06827C12.5954 7.06827 14.266 8.61044 14.266 10.6667C14.266 12.5944 12.5954 14.2651 10.6676 14.2651Z" fill="white"/>
<path d="M16.3223 6.29719C17.032 6.29719 17.6074 5.72181 17.6074 5.01205C17.6074 4.30229 17.032 3.72691 16.3223 3.72691C15.6125 3.72691 15.0371 4.30229 15.0371 5.01205C15.0371 5.72181 15.6125 6.29719 16.3223 6.29719Z" fill="white"/>
</svg>
