<svg width="25" height="22" viewBox="0 0 25 22" fill="none" xmlns="http://www.w3.org/2000/svg">
<g clip-path="url(#clip0_53_871)">
<path d="M5.5 6C6.88071 6 8 4.88071 8 3.5C8 2.11929 6.88071 1 5.5 1C4.11929 1 3 2.11929 3 3.5C3 4.88071 4.11929 6 5.5 6Z" fill="white"/>
<path d="M7.77608 8H3.22392C3.10025 8 3 8.08689 3 8.19408V20.8059C3 20.9131 3.10025 21 3.22392 21H7.77608C7.89975 21 8 20.9131 8 20.8059V8.19408C8 8.08689 7.89975 8 7.77608 8Z" fill="white"/>
<path d="M23 12.4196V20.0967C23 20.5934 22.5798 21 22.0666 21H19.2664C18.7532 21 18.333 20.5934 18.333 20.0967V13.7739C18.333 12.5276 17.2879 11.5163 16 11.5163C14.7121 11.5163 13.667 12.5276 13.667 13.7739V20.0967C13.667 20.5934 13.2468 21 12.7336 21H9.93341C9.4202 21 9 20.5934 9 20.0967V8.35436C9 7.85773 9.4202 7.4511 9.93341 7.4511H12.7336C13.2468 7.4511 13.667 7.85773 13.667 8.35436V8.93253C14.6004 7.76242 16.1455 7 17.8668 7C20.4427 7 23 8.80652 23 12.4196Z" fill="white"/>
</g>
<defs>
<clipPath id="clip0_53_871">
<rect width="24" height="21" fill="white" transform="translate(0.666992 0.166016)"/>
</clipPath>
</defs>
</svg>
