<?xml version="1.0" encoding="UTF-8"?>
<!DOCTYPE svg PUBLIC "-//W3C//DTD SVG 1.1//EN" "http://www.w3.org/Graphics/SVG/1.1/DTD/svg11.dtd">
<svg xmlns="http://www.w3.org/2000/svg" version="1.1" width="512px" height="512px" style="shape-rendering:geometricPrecision; text-rendering:geometricPrecision; image-rendering:optimizeQuality; fill-rule:evenodd; clip-rule:evenodd" xmlns:xlink="http://www.w3.org/1999/xlink">
<g><path style="opacity:0.97" fill="#000000" d="M 254.5,-0.5 C 262.5,-0.5 270.5,-0.5 278.5,-0.5C 358.892,9.09756 422.392,46.7642 469,112.5C 492.821,149.132 506.988,189.132 511.5,232.5C 511.5,240.167 511.5,247.833 511.5,255.5C 500.5,255.5 489.5,255.5 478.5,255.5C 475.717,170.064 438.05,105.231 365.5,61C 331.32,41.9549 294.654,32.2883 255.5,32C 254.513,21.2483 254.18,10.415 254.5,-0.5 Z"/></g>
<g><path style="opacity:0.991" fill="#000000" d="M 408.5,511.5 C 396.167,511.5 383.833,511.5 371.5,511.5C 228.796,497.111 121.296,428.445 49,305.5C 20.8379,253.525 4.33785,198.192 -0.5,139.5C -0.5,127.167 -0.5,114.833 -0.5,102.5C 1.28826,96.3281 3.78826,90.3281 7,84.5C 19.8333,71.6667 32.6667,58.8333 45.5,46C 72.4131,28.5922 98.4131,29.9256 123.5,50C 131.772,57.3822 137.939,66.2155 142,76.5C 148,98.5 154,120.5 160,142.5C 163.062,159.128 160.395,174.795 152,189.5C 142.487,199.679 132.987,209.845 123.5,220C 150,305.167 205.833,361 291,387.5C 300.125,379.377 308.958,370.877 317.5,362C 332.937,351.225 349.937,347.558 368.5,351C 391.225,357.13 413.891,363.464 436.5,370C 468.27,385.454 481.103,410.62 475,445.5C 473.217,451.067 470.883,456.401 468,461.5C 454.529,475.971 440.696,490.138 426.5,504C 420.672,507.212 414.672,509.712 408.5,511.5 Z"/></g>
<g><path style="opacity:0.968" fill="#000000" d="M 254.5,94.5 C 323.511,97.4029 373.011,129.736 403,191.5C 411.721,211.939 415.888,233.272 415.5,255.5C 404.5,255.5 393.5,255.5 382.5,255.5C 380.553,202.757 356.219,164.257 309.5,140C 292.347,132.212 274.347,128.212 255.5,128C 254.513,116.915 254.179,105.748 254.5,94.5 Z"/></g>
<g><path style="opacity:0.962" fill="#000000" d="M 254.5,190.5 C 288.774,192.709 310.274,210.376 319,243.5C 319.499,247.486 319.666,251.486 319.5,255.5C 308.5,255.5 297.5,255.5 286.5,255.5C 284.949,236.115 274.449,225.449 255,223.5C 254.5,212.505 254.333,201.505 254.5,190.5 Z"/></g>
</svg>
