<?xml version="1.0" encoding="iso-8859-1"?>
<svg height="800px" width="800px" version="1.1" id="Layer_1" xmlns="http://www.w3.org/2000/svg" xmlns:xlink="http://www.w3.org/1999/xlink"
	 viewBox="0 0 512.03 512.03" xml:space="preserve">
<g>
	<path style="fill:#cb2027;" d="M94.995,217.954c0,0-91.66,79.534-91.878,79.737c-4.156,4.172-4.156,10.922,0,15.094
		c2.188,2.156,5.032,3.188,7.875,3.109l0,0l105.285-10.656l112.441-112.66L94.995,217.954z"/>
	<path style="fill:#cb2027;" d="M294.065,417.038c0,0-79.533,91.645-79.752,91.848c-4.156,4.172-10.907,4.172-15.063,0
		c-2.156-2.156-3.188-5.016-3.125-7.844l0,0l10.657-105.301L319.442,283.3L294.065,417.038z"/>
</g>
<polygon style="fill:#434A54;" points="161.53,410.835 101.184,350.49 101.184,290.144 221.875,410.835 "/>
<path style="fill:#ff9600;" d="M506.229,5.806c-56.94-15.204-120.223-0.469-164.881,44.188l-240.164,240.15l120.691,120.691
	L462.04,170.686C506.698,126.013,521.449,62.745,506.229,5.806z"/>
<g>
	<path style="fill:#cb2027;" d="M497.885,118.138c15.469-35.548,18.251-75.284,8.344-112.332
		c-37.063-9.891-76.783-7.11-112.316,8.344L497.885,118.138z"/>
	<path style="fill:#cb2027;" d="M252.033,275.065c4.188-4.172,4.156-10.923,0-15.079c-4.156-4.171-10.938-4.156-15.095,0.016
		l-135.754,135.74c-4.157,4.172-4.157,10.922,0,15.094c4.156,4.156,10.938,4.156,15.094,0l0,0L252.033,275.065z"/>
</g>
<path style="fill:#53dcff;" d="M365.193,207.188c-16.688,16.657-43.688,16.657-60.346,0c-16.657-16.672-16.657-43.689,0-60.346
	c16.657-16.673,43.657-16.673,60.346,0C381.85,163.499,381.85,190.515,365.193,207.188z"/>
<path style="fill:#434A54;" d="M335.004,230.345c-14.25,0-27.626-5.547-37.721-15.625c-10.062-10.063-15.594-23.47-15.594-37.705
	c0-14.25,5.531-27.642,15.594-37.72c10.095-10.079,23.471-15.625,37.721-15.625s27.657,5.547,37.721,15.625
	c10.062,10.079,15.625,23.47,15.625,37.72c0,14.235-5.562,27.642-15.625,37.705C362.661,224.798,349.254,230.345,335.004,230.345z
	 M335.004,145.014c-8.531,0-16.594,3.329-22.626,9.375c-6.031,6.032-9.375,14.079-9.375,22.626c0,8.547,3.344,16.579,9.375,22.625
	c6.032,6.047,14.095,9.375,22.626,9.375c8.562,0,16.594-3.328,22.626-9.375c6.062-6.047,9.376-14.079,9.376-22.625
	c0-8.547-3.313-16.594-9.376-22.626C351.598,148.342,343.567,145.014,335.004,145.014z"/>
</svg>