<svg width="30" height="22" viewBox="0 0 30 22" fill="none" xmlns="http://www.w3.org/2000/svg">
<path d="M29.267 3.2381C28.9003 1.90476 27.9837 0.952381 26.7003 0.571429C24.5003 3.40598e-07 15.1503 0 15.1503 0C15.1503 0 5.98367 3.40598e-07 3.60034 0.571429C2.317 0.952381 1.40032 1.90476 1.03365 3.2381C0.666987 5.71429 0.666992 10.6667 0.666992 10.6667C0.666992 10.6667 0.666998 15.619 1.217 18.0952C1.58366 19.4286 2.50032 20.381 3.78365 20.7619C5.98365 21.3333 15.3337 21.3333 15.3337 21.3333C15.3337 21.3333 24.5003 21.3333 26.8836 20.7619C28.167 20.381 29.0837 19.4286 29.4503 18.0952C30.0003 15.619 30.0003 10.6667 30.0003 10.6667C30.0003 10.6667 30.0003 5.71429 29.267 3.2381ZM12.4003 15.2381V6.09524L20.1003 10.6667L12.4003 15.2381Z" fill="white"/>
</svg>
