<svg width="1920" height="953" viewBox="0 0 1920 953" fill="none" xmlns="http://www.w3.org/2000/svg">
<g filter="url(#filter0_i_289_419)">
<path d="M1571.54 68.2911C1726.08 -47.1382 1972.39 14.3583 2126.32 37.0041C2134.85 110.515 2088.35 500.219 2058.36 485.41C2020.89 466.898 1870.88 459.1 1816.13 507.847C1781.78 538.438 1734.73 571.989 1625.42 565.558C1516.11 559.126 1407.79 476.957 1263.41 563.815C1140 638.053 1185 878 988.252 864.945C862.769 856.618 805.448 779.698 593.307 767.216C476.525 760.344 443.849 796.223 345.058 891.955C266.025 968.541 46.7347 956.923 -53.0315 941.541L-95.0908 763.843C-171.098 718.77 -126.24 674.629 -115.579 677.28L-95.0908 763.843C-69.0374 779.293 -28.783 794.853 31.9173 808.675C186.13 843.792 306.952 799.017 354.418 732.878C401.884 666.739 490.922 631.582 600.907 638.053C826.524 651.328 962.888 598 1022.98 530.111C1088.01 456.634 1133.27 304.171 1231.18 285.821C1505 234.5 1392.01 202.385 1571.54 68.2911Z" fill="url(#paint0_linear_289_419)"/>
</g>
<defs>
<filter id="filter0_i_289_419" x="-138.433" y="0.28125" width="2265.78" height="952.534" filterUnits="userSpaceOnUse" color-interpolation-filters="sRGB">
<feFlood flood-opacity="0" result="BackgroundImageFix"/>
<feBlend mode="normal" in="SourceGraphic" in2="BackgroundImageFix" result="shape"/>
<feColorMatrix in="SourceAlpha" type="matrix" values="0 0 0 0 0 0 0 0 0 0 0 0 0 0 0 0 0 0 127 0" result="hardAlpha"/>
<feOffset/>
<feGaussianBlur stdDeviation="51.2309"/>
<feComposite in2="hardAlpha" operator="arithmetic" k2="-1" k3="1"/>
<feColorMatrix type="matrix" values="0 0 0 0 0 0 0 0 0 0 0 0 0 0 0 0 0 0 0.25 0"/>
<feBlend mode="normal" in2="shape" result="effect1_innerShadow_289_419"/>
</filter>
<linearGradient id="paint0_linear_289_419" x1="892.687" y1="333.683" x2="2124.81" y2="724.324" gradientUnits="userSpaceOnUse">
<stop stop-color="#F8971D"/>
<stop offset="1" stop-color="#CB2027"/>
</linearGradient>
</defs>
</svg>
