<svg width="67" height="61" viewBox="0 0 67 61" fill="none" xmlns="http://www.w3.org/2000/svg">
<g clip-path="url(#clip0_312_2914)">
<path d="M7 47.8512C7 52.8955 11.0966 57 16.1334 57H51.8666C56.9024 57 61 52.8955 61 47.8512V22H7V47.8512ZM24.964 35.9448L30.2242 35.1791L32.5769 30.4053C33.1582 29.2248 34.8439 29.2248 35.4252 30.4053L37.7768 35.1791L43.036 35.9448C44.3362 36.1336 44.8572 37.7394 43.9159 38.6579L40.1105 42.3742L41.0084 47.6211C41.2307 48.9224 39.8616 49.9077 38.7044 49.2979L34 46.8203L29.2956 49.2979C28.1331 49.9098 26.7693 48.9192 26.9916 47.6211L27.8906 42.3742L24.0852 38.6579C23.1449 37.7394 23.6648 36.1336 24.9651 35.9448H24.964Z" fill="white"/>
<path d="M61 15.3448C61 10.1925 56.9024 6 51.8666 6H49.8824V10.3333C49.8824 11.2303 49.1708 11.9583 48.2941 11.9583C47.4174 11.9583 46.7059 11.2303 46.7059 10.3333V6H21.2941V10.3333C21.2941 11.2303 20.5826 11.9583 19.7059 11.9583C18.8292 11.9583 18.1176 11.2303 18.1176 10.3333V6H16.1334C11.0966 6 7 10.1914 7 15.3448V19H61V15.3448Z" fill="white"/>
<path d="M21 4.5C21 3.672 20.328 3 19.5 3C18.672 3 18 3.672 18 4.5V6H21V4.5Z" fill="white"/>
<path d="M50 4.5C50 3.672 49.328 3 48.5 3C47.672 3 47 3.672 47 4.5V6H50V4.5Z" fill="white"/>
</g>
<defs>
<clipPath id="clip0_312_2914">
<rect width="65.8127" height="59.9812" fill="white" transform="translate(0.932007 0.491455)"/>
</clipPath>
</defs>
</svg>
