<svg width="64" height="61" viewBox="0 0 64 61" fill="none" xmlns="http://www.w3.org/2000/svg">
<path fill-rule="evenodd" clip-rule="evenodd" d="M21.7272 45.448C20.2922 45.6844 18.872 45.9208 17.4812 46.1203L16.1714 46.4749L22.8016 58L26.5325 56.9952L21.7198 45.448H21.7272ZM46.3495 21.3488L49.2783 32.3272C50.2791 31.8544 51.0959 31.0565 51.6037 30.0591C52.9871 27.2591 52.082 23.8681 49.4917 22.1467C48.5572 21.5409 47.4534 21.2602 46.3495 21.3488ZM16.3038 44.7314L13.6326 45.448C12.9262 45.6401 12.1682 45.5367 11.5353 45.1673C11.5206 45.1599 11.5059 45.1525 11.4986 45.1451C10.8804 44.7757 10.4315 44.1773 10.2476 43.4828L7.00237 31.3372C7.00237 31.3372 6.98765 31.2855 6.98029 31.2559C6.80368 30.5541 6.9067 29.8079 7.26728 29.1873C7.6205 28.5594 8.21656 28.0939 8.90828 27.8945C8.93771 27.8945 8.95979 27.8797 8.98922 27.8723L11.6163 27.1631L16.3038 44.724V44.7314ZM38.8068 55.5251H57.7777C59.0066 55.5251 60 54.5203 60 53.2939V42.6406C60 41.4069 58.9992 40.4095 57.7777 40.4095H38.8068C37.5779 40.4095 36.5845 41.4142 36.5845 42.6406V53.2939C36.5845 54.5277 37.5853 55.5251 38.8068 55.5251ZM47.8802 46.5562L50.3085 47.9599L47.8875 49.3636L45.4665 50.7673V45.1599L47.8875 46.5636L47.8802 46.5562ZM45.0986 43.0396L48.7043 45.1303L52.3616 47.2507C52.6265 47.3984 52.7811 47.6865 52.7664 47.9894C52.7516 48.2923 52.5824 48.5657 52.3101 48.6987L48.697 50.7968L45.0397 52.9171C44.7821 53.0649 44.4731 53.0649 44.2155 52.9171C43.958 52.7694 43.8034 52.496 43.8034 52.2079V43.7266C43.8034 43.4237 43.9727 43.143 44.2376 42.9952C44.5025 42.8475 44.8336 42.8697 45.0838 43.0396H45.0986ZM37.3498 15.3203H54.2749C55.3198 15.3203 56.1661 14.4633 56.1661 13.4142V3.89868C56.1661 2.8496 55.3125 2 54.2749 2H37.3498C36.3049 2 35.4586 2.8496 35.4586 3.89868V13.3995C35.4586 14.3747 36.1871 15.1873 37.1511 15.2908C37.2026 15.2908 37.2541 15.2908 37.313 15.3055H37.3498V15.3203ZM43.4723 16.9752L44.5246 20.9203L47.917 33.6348L49.2857 38.7546H44.061L38.2476 16.9752H43.4723ZM43.5679 3.47757C44.3774 3.65488 45.1427 4.00211 45.805 4.51187C46.4673 4.0095 47.2326 3.65488 48.042 3.47757C48.9619 3.26332 49.9185 3.53668 50.5882 4.20158C51.1695 4.77045 51.5154 5.53879 51.5522 6.35145C51.5595 7.46702 51.2431 8.56042 50.647 9.50607C50.0804 10.4591 49.4034 11.3309 48.616 12.114C47.9022 12.9193 46.9971 13.5398 45.989 13.9166C45.9669 13.9166 45.9375 13.924 45.9154 13.9314H45.724C45.1574 13.8945 44.0389 13.1778 42.9866 12.114C42.1992 11.3383 41.5149 10.4591 40.9556 9.50607C40.3595 8.56781 40.0431 7.47441 40.0505 6.35145C40.0873 5.53879 40.4331 4.77045 41.0145 4.20158C41.6841 3.52929 42.6407 3.25594 43.5606 3.47757H43.5679ZM45.2678 6.18892C45.5769 6.45488 46.0331 6.45488 46.3422 6.18892C46.9088 5.66438 47.5932 5.2876 48.3364 5.1029C48.7191 5.00686 49.1311 5.1029 49.4255 5.37625C49.7125 5.66438 49.8891 6.04855 49.9112 6.45488C49.8965 7.24538 49.661 8.01372 49.2268 8.67863C48.7338 9.50607 48.1377 10.267 47.4534 10.9467C46.9824 11.486 46.4305 11.9367 45.805 12.2765C45.1795 11.9367 44.6202 11.4786 44.1566 10.9467C43.4723 10.267 42.8762 9.50607 42.3832 8.67863C41.949 8.01372 41.7135 7.24538 41.6988 6.45488C41.7209 6.04855 41.8975 5.65699 42.1845 5.37625C42.4715 5.1029 42.8836 5.00686 43.2662 5.1029C44.0095 5.29499 44.7012 5.66438 45.2604 6.18892H45.2678ZM20.8883 17.0417C21.3445 17.0417 21.7125 17.4111 21.7125 17.8691C21.7125 18.3272 21.3445 18.6966 20.8883 18.6966H7.84126C7.38502 18.6966 7.01708 18.3272 7.01708 17.8691C7.01708 17.4111 7.38502 17.0417 7.84126 17.0417H20.8883ZM20.8883 11.3309C21.3372 11.3456 21.6904 11.7077 21.6904 12.1583C21.6904 12.609 21.3372 12.971 20.8883 12.9858H7.84126C7.6205 12.9858 7.4071 12.9045 7.2452 12.7493C7.08331 12.5942 6.99501 12.3799 6.99501 12.1583C6.99501 11.9367 7.08331 11.7224 7.2452 11.5673C7.4071 11.4121 7.6205 11.3309 7.84126 11.3309H20.8883ZM16.2597 25.486C15.6415 25.7224 15.0528 25.9441 14.5377 26.1435C14.1109 26.3061 13.6547 26.4834 13.1763 26.6755L17.908 44.4137C19.446 44.1847 20.9987 43.9261 22.5661 43.6602C26.6649 42.8918 30.8079 42.3673 34.9729 42.0792C35.2599 40.1805 36.8862 38.7768 38.7995 38.7694H42.3464L36.5109 16.8939C36.0547 16.7831 35.6205 16.5763 35.2378 16.2955C33.847 17.3668 32.3827 18.3346 30.8594 19.1916C29.1816 20.1372 27.4597 21.0016 25.6862 21.7625C25.5758 21.9177 25.4507 22.058 25.3183 22.191C24.6633 22.8485 23.7803 23.2253 22.8457 23.2327V27.8354C22.8604 28.1383 22.7133 28.419 22.4557 28.5815C22.1982 28.7367 21.8744 28.7441 21.6168 28.5963L16.8925 25.8554L16.2449 25.4786L16.2597 25.486ZM22.831 8.25752H5.89855C4.85361 8.25752 4.00736 9.11451 4 10.1636V19.6792C4 20.7282 4.85361 21.5778 5.89855 21.5852H12.595C12.7643 21.5852 12.9335 21.6369 13.066 21.733L21.2121 26.4612V22.4127C21.2121 21.9546 21.58 21.5926 22.0289 21.5926H22.8163C23.8612 21.5926 24.7075 20.7356 24.7148 19.6865V10.171C24.7148 9.1219 23.8612 8.27229 22.8163 8.26491L22.831 8.25752Z" fill="white"/>
</svg>
