<svg width="1920" height="1032" viewBox="0 0 1920 1032" fill="none" xmlns="http://www.w3.org/2000/svg">
<g filter="url(#filter0_i_264_2532)">
<path d="M1844.17 61.221C2005.04 -48.3007 2260.42 5.12923 2368 96.3972V1025.24C2368 1025.24 -285.496 1040.45 -289.551 1025.24C-293.607 1010.03 -456.176 993.866 -400.336 906.401C-330.535 797.069 -297.235 989.112 -268.419 980.556C-245.109 973.635 -206.302 971.049 -181.328 955.838C-156.353 940.626 -96.7982 875.027 -21.2341 843.654C54.33 812.281 186.665 865.026 273.338 878.83C440.476 905.45 519.882 870.274 564.068 843.654C598.565 822.871 740.024 703.098 900.905 751.435C1008.49 783.759 1123.76 720.062 1142.33 517.561C1167.84 239.387 1387.59 198.123 1491.97 198.123C1596.35 198.123 1643.1 198.123 1844.17 61.221Z" fill="url(#paint0_linear_264_2532)"/>
</g>
<defs>
<filter id="filter0_i_264_2532" x="-412" y="0" width="2780" height="1032" filterUnits="userSpaceOnUse" color-interpolation-filters="sRGB">
<feFlood flood-opacity="0" result="BackgroundImageFix"/>
<feBlend mode="normal" in="SourceGraphic" in2="BackgroundImageFix" result="shape"/>
<feColorMatrix in="SourceAlpha" type="matrix" values="0 0 0 0 0 0 0 0 0 0 0 0 0 0 0 0 0 0 127 0" result="hardAlpha"/>
<feOffset/>
<feGaussianBlur stdDeviation="51.2309"/>
<feComposite in2="hardAlpha" operator="arithmetic" k2="-1" k3="1"/>
<feColorMatrix type="matrix" values="0 0 0 0 0 0 0 0 0 0 0 0 0 0 0 0 0 0 0.25 0"/>
<feBlend mode="normal" in2="shape" result="effect1_innerShadow_264_2532"/>
</filter>
<linearGradient id="paint0_linear_264_2532" x1="788.839" y1="161.996" x2="2430" y2="579.547" gradientUnits="userSpaceOnUse">
<stop stop-color="#F8971D"/>
<stop offset="1" stop-color="#CB2027"/>
</linearGradient>
</defs>
</svg>
