<svg width="67" height="61" viewBox="0 0 67 61" fill="none" xmlns="http://www.w3.org/2000/svg">
<g clip-path="url(#clip0_312_2906)">
<path fill-rule="evenodd" clip-rule="evenodd" d="M38.0089 16.2137V32.7128C38.0089 34.3627 36.636 35.6974 34.9542 35.6974H10.8942C9.21236 35.6974 7.83946 34.356 7.83946 32.7128V16.2137C7.83946 14.5638 9.21236 13.2291 10.8942 13.2291H34.9542C36.636 13.2291 38.0089 14.5705 38.0089 16.2137ZM32.3663 46.3212H28.1926V50.2314C28.1926 50.6137 27.8769 50.9222 27.4856 50.9222H19.7837C16.4612 50.9222 13.2967 52.4581 11.2442 55H49.3215C47.269 52.4581 44.0976 50.9222 40.7752 50.9222H33.0733C32.682 50.9222 32.3663 50.6137 32.3663 50.2314V46.3212ZM51.6623 40.3319H3V42.3104C3 43.7591 4.20815 44.9396 5.69088 44.9396H54.8818C55.3074 44.9396 55.7192 44.839 56.0968 44.6579L51.6692 40.3386L51.6623 40.3319ZM65 46.2742L62.3778 48.843L44.2624 31.1501L43.0748 27.421L46.8915 28.588L65 46.281V46.2742ZM45.7108 13.4973C46.2531 14.4162 47.4681 14.7314 48.4085 14.2016C49.3558 13.6717 49.6785 12.4913 49.1293 11.5657C48.5802 10.6402 47.372 10.3317 46.4316 10.8615C45.4911 11.3914 45.1616 12.5718 45.7108 13.4973ZM42.9787 18.038C42.8758 17.9575 42.8483 17.8166 42.9101 17.6959C43.9398 15.9119 42.6424 13.7656 40.5899 13.7656C40.4526 13.7656 40.3359 13.6717 40.3153 13.5376C40.2261 12.8669 40.2261 12.1895 40.3153 11.5255C40.3359 11.3914 40.4457 11.2975 40.5899 11.2975C42.6218 11.2975 43.9398 9.15795 42.9032 7.36719C42.8346 7.25317 42.862 7.11233 42.9719 7.02514C43.5142 6.60931 44.1182 6.26725 44.7566 6.01909C44.8871 5.97214 45.0312 6.01909 45.093 6.13311C46.0609 7.80985 48.6351 7.94399 49.7334 6.13311C49.8089 6.01239 49.9393 5.97214 50.0698 6.01909C50.715 6.26725 51.3122 6.60931 51.8545 7.02514C51.9643 7.10562 51.9918 7.24647 51.9232 7.36719C50.8935 9.06405 52.1771 11.3109 54.2502 11.2975C54.3806 11.2975 54.4973 11.3914 54.5179 11.5255C54.614 12.1962 54.614 12.8736 54.5179 13.5376C54.4973 13.6717 54.3875 13.7656 54.2434 13.7656C52.136 13.7656 50.9072 16.0192 51.9232 17.6959C51.9987 17.8099 51.9712 17.9508 51.8545 18.038C51.3122 18.4538 50.7081 18.7958 50.0698 19.044C49.9462 19.0977 49.802 19.044 49.7334 18.93C48.6282 17.1124 46.0609 17.2532 45.093 18.93C45.0244 19.044 44.8871 19.091 44.7635 19.044C44.1114 18.7958 43.5142 18.4538 42.9719 18.038H42.9787ZM47.4269 15.8448C46.2531 15.8448 45.1136 15.2479 44.4821 14.1882C43.5485 12.6053 44.1045 10.5798 45.7245 9.66097C48.3193 8.19885 51.477 10.5195 50.6944 13.3833C50.2963 14.8454 48.944 15.8381 47.4269 15.8381V15.8448ZM36.5948 32.7128V16.2137C36.5948 15.3283 35.8534 14.6107 34.9473 14.6107H10.8942C9.99491 14.6107 9.25354 15.3283 9.25354 16.2137V32.7128C9.25354 33.5981 9.98804 34.3157 10.8942 34.3157H34.9542C35.8534 34.3157 36.5948 33.5981 36.5948 32.7128ZM33.2998 20.097C33.6911 20.097 34.0069 19.7885 34.0069 19.4062C34.0069 19.0239 33.6911 18.7154 33.2998 18.7154H12.5485C12.1572 18.7154 11.8415 19.0239 11.8415 19.4062C11.8415 19.7885 12.1572 20.097 12.5485 20.097H33.3067H33.2998ZM3 10.8682V38.9435H50.2551L43.1435 31.9951C43.0611 31.9147 43.0062 31.8208 42.9719 31.7134L41.3244 26.5558C41.1528 26.0192 41.6676 25.5229 42.2099 25.6906L47.4818 27.3003C47.5917 27.3338 47.6946 27.3942 47.777 27.4746L57.5795 37.0522V10.8682C57.5795 9.41952 56.3713 8.2391 54.8886 8.2391H53.0764C52.7675 9.04393 53.3647 9.90913 54.2571 9.90913H54.264C55.1083 9.90913 55.8085 10.4993 55.9252 11.3176C56.0418 12.1157 56.0418 12.9273 55.9252 13.7321C55.8016 14.5503 55.1014 15.1406 54.2571 15.1406C53.2823 15.1406 52.6783 16.1734 53.1656 16.9917C53.5912 17.7093 53.4196 18.6013 52.7469 19.1111C52.0948 19.6074 51.3809 20.0165 50.612 20.3183C49.8364 20.6201 48.9508 20.3384 48.5252 19.6074C48.0379 18.7824 46.816 18.7891 46.3355 19.6074C45.9167 20.325 45.0381 20.6201 44.2555 20.3183C43.4798 20.0165 42.7659 19.6141 42.1138 19.1111C41.448 18.6013 41.2695 17.7093 41.6951 16.9917C42.1756 16.1868 41.6196 15.1607 40.6105 15.1406C39.7593 15.1406 39.0591 14.5436 38.9424 13.7321C38.8257 12.934 38.8257 12.1224 38.9424 11.3176C39.066 10.4993 39.773 9.90913 40.6105 9.90913C41.5097 9.90913 42.1001 9.04393 41.7912 8.2391H5.69088C4.20815 8.2391 3 9.41952 3 10.8682Z" fill="white"/>
</g>
<defs>
<clipPath id="clip0_312_2906">
<rect width="65.8127" height="59.9812" fill="white" transform="translate(0.892212 0.491455)"/>
</clipPath>
</defs>
</svg>
