<svg width="38" height="25" viewBox="0 0 38 25" fill="none" xmlns="http://www.w3.org/2000/svg">
<path fill-rule="evenodd" clip-rule="evenodd" d="M31.0582 12.725V20.7706C31.0582 22.4802 25.6436 23.8641 18.9899 23.8641C12.3363 23.8641 6.94177 22.4641 6.94177 20.7384V12.6928L17.936 17.1863C18.2699 17.3257 18.6281 17.3975 18.9899 17.3975C19.3518 17.3975 19.71 17.3257 20.0439 17.1863L31.0582 12.725ZM36.1993 16.4984V9.44246L37.4705 8.92754C37.627 8.86401 37.761 8.75523 37.8553 8.61513C37.9496 8.47504 38 8.30998 38 8.14109C38 7.9722 37.9496 7.80715 37.8553 7.66705C37.761 7.52695 37.627 7.41818 37.4705 7.35464L19.6296 0.129761C19.4272 0.0441258 19.2097 0 18.9899 0C18.7702 0 18.5527 0.0441258 18.3503 0.129761L0.529487 7.37073C0.373002 7.43427 0.23903 7.54304 0.144707 7.68314C0.050384 7.82324 0 7.98829 0 8.15718C0 8.32607 0.050384 8.49113 0.144707 8.63122C0.23903 8.77132 0.373002 8.8801 0.529487 8.94363L18.3503 16.1846C18.5527 16.2702 18.7702 16.3144 18.9899 16.3144C19.2097 16.3144 19.4272 16.2702 19.6296 16.1846L35.081 9.89703V16.4984C34.8841 16.5902 34.7149 16.7322 34.5902 16.9101C34.4656 17.088 34.3899 17.2955 34.3707 17.5119C34.3516 17.7283 34.3897 17.9459 34.4811 18.1429C34.5726 18.34 34.7143 18.5095 34.8919 18.6345C34.6828 18.7601 34.5089 18.9367 34.3865 19.1478C34.2641 19.3588 34.1972 19.5974 34.192 19.8413V23.6106C34.192 23.824 34.2767 24.0286 34.4276 24.1795C34.5785 24.3304 34.7831 24.4152 34.9965 24.4152H36.2878C36.5012 24.4152 36.7058 24.3304 36.8567 24.1795C37.0076 24.0286 37.0924 23.824 37.0924 23.6106V19.8413C37.0842 19.5937 37.0121 19.3525 36.8831 19.141C36.7541 18.9296 36.5726 18.7551 36.3562 18.6345C36.5285 18.5087 36.6655 18.3408 36.7541 18.1468C36.8427 17.9528 36.8799 17.7393 36.8622 17.5268C36.8444 17.3142 36.7722 17.1098 36.6526 16.9333C36.533 16.7567 36.37 16.6138 36.1792 16.5185L36.1993 16.4984Z" fill="black"/>
</svg>
