<svg width="38" height="38" viewBox="0 0 38 38" fill="none" xmlns="http://www.w3.org/2000/svg">
<path d="M19.4527 0.142059C19.1805 -0.0473531 18.8203 -0.0473531 18.5481 0.142059L0.65625 12.5886H37.3446L19.4527 0.142059ZM19.0008 10.292C17.6891 10.292 16.6258 9.22864 16.6258 7.91696C16.6258 6.60528 17.6891 5.54196 19.0008 5.54196C20.3125 5.54196 21.3758 6.60528 21.3758 7.91696C21.3758 9.22864 20.3125 10.292 19.0008 10.292Z" fill="black"/>
<path d="M37.2083 17.4168C37.6459 17.4168 38 17.0623 38 16.6252V14.1719H0V16.6252C0 17.0623 0.354085 17.4168 0.791667 17.4168H4.75082V33.2505H0.791667C0.354085 33.2505 0 33.6046 0 34.0422V37.2089C0 37.6465 0.354085 38.0005 0.791667 38.0005H37.2083C37.6459 38.0005 38 37.6465 38 37.2089V34.0422C38 33.6046 37.6459 33.2505 37.2083 33.2505H33.2508V17.4168H37.2083ZM11.0842 33.2505V17.4168H15.8342V33.2505H11.0842ZM26.9175 33.2505H22.1675V17.4168H26.9175V33.2505Z" fill="black"/>
</svg>
