<svg width="89" height="89" viewBox="0 0 89 89" fill="none" xmlns="http://www.w3.org/2000/svg">
<g clip-path="url(#clip0_24_1257)">
<rect width="89" height="89" rx="44.5" fill="#DFDFDF"/>
<g clip-path="url(#clip1_24_1257)">
<path d="M44.5 89C69.0767 89 89 69.0767 89 44.5C89 19.9233 69.0767 0 44.5 0C19.9233 0 0 19.9233 0 44.5C0 69.0767 19.9233 89 44.5 89Z" fill="url(#paint0_linear_24_1257)"/>
<path d="M56.7688 29.6168C55.2748 29.6168 54.061 30.8306 54.061 32.3245C54.061 33.8185 55.2748 35.0323 56.7688 35.0323C58.2627 35.0323 59.4765 33.8185 59.4765 32.3245C59.4765 30.8306 58.2627 29.6168 56.7688 29.6168Z" fill="white"/>
<path d="M44.6866 33.0902C38.3935 33.0902 33.2769 38.2069 33.2769 44.5C33.2769 50.7931 38.3935 55.9098 44.6866 55.9098C50.9798 55.9098 56.0964 50.7931 56.0964 44.5C56.0964 38.2069 50.9798 33.0902 44.6866 33.0902ZM44.6866 51.8015C40.6531 51.8015 37.3851 48.5149 37.3851 44.5C37.3851 40.4851 40.6717 37.1985 44.6866 37.1985C48.7015 37.1985 51.9881 40.4851 51.9881 44.5C51.9881 48.5149 48.7015 51.8015 44.6866 51.8015Z" fill="white"/>
<path d="M53.7438 67.6557H35.2566C27.5816 67.6557 21.3445 61.4186 21.3445 53.7436V35.2564C21.3445 27.5815 27.5816 21.3444 35.2566 21.3444H53.7438C61.4188 21.3444 67.6558 27.5815 67.6558 35.2564V53.7436C67.6558 61.4186 61.4188 67.6557 53.7438 67.6557ZM35.2566 25.6954C29.9905 25.6954 25.6955 29.9904 25.6955 35.2564V53.7436C25.6955 59.0097 29.9905 63.3047 35.2566 63.3047H53.7438C59.0098 63.3047 63.3048 59.0097 63.3048 53.7436V35.2564C63.3048 29.9904 59.0098 25.6954 53.7438 25.6954H35.2566Z" fill="white"/>
</g>
</g>
<defs>
<linearGradient id="paint0_linear_24_1257" x1="13.0344" y1="13.0344" x2="75.9656" y2="75.9656" gradientUnits="userSpaceOnUse">
<stop stop-color="#FFE185"/>
<stop offset="0.21" stop-color="#FFBB36"/>
<stop offset="0.38" stop-color="#FF5176"/>
<stop offset="0.52" stop-color="#F63395"/>
<stop offset="0.74" stop-color="#A436D2"/>
<stop offset="1" stop-color="#5F4EED"/>
</linearGradient>
<clipPath id="clip0_24_1257">
<rect width="89" height="89" rx="44.5" fill="white"/>
</clipPath>
<clipPath id="clip1_24_1257">
<rect width="89" height="89" fill="white"/>
</clipPath>
</defs>
</svg>
